<svg width="90" height="87" viewBox="0 0 90 87" fill="none" xmlns="http://www.w3.org/2000/svg">
<path d="M0.457938 52.8159L-4.75906 -4.22289L60.2791 0.298492L0.457938 52.8159Z" fill="url(#paint0_diamond_872_857)"/>
<path d="M12.9717 29.5487C12.917 30.8076 15.2112 33.522 17.5209 33.7803L29.7679 30.129L35.348 20.313C35.8297 16.5726 34.5075 15.1163 33.4014 15.108C34.722 11.062 30.9011 6.16927 28.0535 3.87902C25.2059 1.58877 17.2839 2.7494 11.8703 6.05592C6.45675 9.36245 3.3989 16.2603 3.80271 21.0708C4.12575 24.9192 10.4766 28.1687 12.9717 29.5487Z" fill="#F2F2F2" stroke="#333333" stroke-width="0.920354"/>
<path d="M17.2429 27.2973C17.108 27.0918 16.7875 27.0456 16.5202 27.221C16.2528 27.3964 16.1675 27.7088 16.3023 27.9143C16.4371 28.1198 16.7576 28.166 17.025 27.9906C17.2923 27.8152 17.3777 27.5029 17.2429 27.2973Z" fill="#333333" stroke="#333333" stroke-width="0.102262"/>
<path d="M16.201 12.9379C16.5788 12.6901 17.0483 12.738 17.2497 13.045C17.451 13.3519 17.308 13.8017 16.9302 14.0495C16.5524 14.2973 16.0829 14.2494 15.8816 13.9424C15.6802 13.6354 15.8233 13.1857 16.201 12.9379Z" fill="#B7740E"/>
<path d="M17.2069 13.073C17.0262 12.7975 16.592 12.7426 16.2291 12.9806C15.8662 13.2187 15.7436 13.6389 15.9243 13.9144C16.105 14.1898 16.5393 14.2448 16.9022 14.0067C17.2651 13.7687 17.3876 13.3485 17.2069 13.073Z" stroke="black" stroke-opacity="0.5" stroke-width="0.102262"/>
<path d="M30.2775 17.5241C30.1127 17.2728 29.7104 17.2234 29.3705 17.4464C29.0305 17.6694 28.9156 18.058 29.0804 18.3093C29.2453 18.5606 29.6475 18.61 29.9875 18.387C30.3274 18.164 30.4424 17.7754 30.2775 17.5241Z" fill="#333333" stroke="#333333" stroke-width="0.102262"/>
<path d="M17.1146 14.0509C16.3739 14.4878 15.2144 14.6655 14.7273 14.6996C14.9526 14.2665 15.5831 13.2822 16.3013 12.811C17.0196 12.3399 18.0595 12.2285 18.4896 12.2317C18.3399 12.656 17.8553 13.6139 17.1146 14.0509Z" stroke="#333333" stroke-width="0.409046"/>
<path d="M16.4682 13.2519C16.5862 13.1744 16.7447 13.2073 16.8222 13.3254C16.8996 13.4435 16.8667 13.602 16.7486 13.6794C16.6306 13.7568 16.4721 13.7239 16.3946 13.6059C16.3172 13.4878 16.3501 13.3293 16.4682 13.2519Z" fill="#333333"/>
<path d="M16.7794 13.3534C16.7175 13.259 16.5907 13.2327 16.4962 13.2946C16.4018 13.3566 16.3754 13.4834 16.4374 13.5778C16.4993 13.6723 16.6261 13.6986 16.7206 13.6366C16.815 13.5747 16.8414 13.4479 16.7794 13.3534Z" stroke="black" stroke-opacity="0.5" stroke-width="0.102262"/>
<g filter="url(#filter0_d_872_857)">
<path d="M60.4418 0.735147C55.8433 1.83004 42.1023 13.965 35.8067 19.8957L17.7411 33.3081C16.4637 34.3117 13.3615 37.0307 11.1717 39.8774C8.98196 42.7241 -3.60925 55.4796 2.41262 54.111C8.43448 52.7424 62.9332 43.3365 57.3568 35.999C48.2384 24.0011 59.1494 6.22811 60.4418 0.735147Z" fill="url(#paint1_linear_872_857)"/>
</g>
<path d="M43.9665 12.8362C45.6689 11.3467 49.3289 8.41019 50.3503 8.58043M43.9665 12.8362C45.3851 13.049 46.146 11.2198 48.3179 13.8974M43.9665 12.8362C45.1948 13.2177 47.6014 14.264 47.4015 15.3969M26.4533 25.293C30.614 24.973 31.1928 25.7629 32.2142 25.9331M26.4533 25.293C28.1557 23.8035 28.9525 27.4698 29.9738 27.6401M26.4533 25.293C26.7022 26.6799 27.2214 29.4537 27.3068 29.4537" stroke="#333333" stroke-opacity="0.24" stroke-linecap="round"/>
<path d="M12.9716 29.5487C13.9453 27.6462 16.4431 23.8594 18.6435 23.9325M33.4013 15.1081C32.6688 15.079 26.9316 15.4995 26.4246 18.8284" stroke="#333333" stroke-width="0.920354"/>
<path d="M26.42 25.0201C28.181 24.7266 31.7617 24.6092 31.9965 26.4876M26.42 25.0201C27.3005 25.9006 29.1202 27.779 29.355 28.2486M26.42 25.0201C26.42 25.8028 26.4787 27.8377 26.7135 29.7161M48.2584 12.5191C46.9396 11.4331 44.6121 9.96571 43.8217 10.9263M43.8217 10.9263C43.6153 11.1771 43.5138 11.5936 43.5624 12.2257M43.8217 10.9263C43.6997 11.3985 43.6144 11.8441 43.5624 12.2257M43.8217 10.9263C44.3881 8.73497 45.7472 5.96934 48.2584 6.35568M43.5624 12.2257C44.4429 10.9538 46.2626 10.0538 46.4974 16.6281" stroke="#333333" stroke-linecap="round"/>
<defs>
<filter id="filter0_d_872_857" x="-2.20306" y="-1.26485" width="65.6448" height="59.4782" filterUnits="userSpaceOnUse" color-interpolation-filters="sRGB">
<feFlood flood-opacity="0" result="BackgroundImageFix"/>
<feColorMatrix in="SourceAlpha" type="matrix" values="0 0 0 0 0 0 0 0 0 0 0 0 0 0 0 0 0 0 127 0" result="hardAlpha"/>
<feOffset dy="1"/>
<feGaussianBlur stdDeviation="1.5"/>
<feComposite in2="hardAlpha" operator="out"/>
<feColorMatrix type="matrix" values="0 0 0 0 0 0 0 0 0 0 0 0 0 0 0 0 0 0 0.25 0"/>
<feBlend mode="normal" in2="BackgroundImageFix" result="effect1_dropShadow_872_857"/>
<feBlend mode="normal" in="SourceGraphic" in2="effect1_dropShadow_872_857" result="shape"/>
</filter>
<radialGradient id="paint0_diamond_872_857" cx="0" cy="0" r="1" gradientUnits="userSpaceOnUse" gradientTransform="translate(7.1685 -18.2981) rotate(61.4636) scale(72.4965 76.1213)">
<stop stop-color="#FBF9F8"/>
<stop stop-color="#FBF9F8"/>
<stop offset="0.536458" stop-color="#FBF9F8"/>
<stop offset="1" stop-color="#F0ECEA"/>
</radialGradient>
<linearGradient id="paint1_linear_872_857" x1="45.9103" y1="44.804" x2="34.4639" y2="27.4743" gradientUnits="userSpaceOnUse">
<stop stop-color="#EBE5E2"/>
<stop offset="0.567708" stop-color="#EBE5E2"/>
<stop offset="1" stop-color="#FAF8F7"/>
</linearGradient>
</defs>
</svg>
