<svg width="536" height="715" viewBox="0 0 536 715" fill="none" xmlns="http://www.w3.org/2000/svg">
  <g clip-path="url(#clip0_792_770)">
    <rect y="0.990723" width="536" height="714" fill="#D9D9D9" />
    <path
      d="M363.082 376.062C356.78 376.062 351.829 374.036 348.228 369.985C345.077 365.934 343.501 361.208 343.501 355.806C343.501 346.804 346.652 339.601 352.954 334.2C359.256 328.798 366.008 326.098 373.21 326.098C379.511 326.098 384.463 328.123 388.064 332.174C391.665 335.775 393.465 340.502 393.465 346.353C393.465 354.906 390.314 362.108 384.013 367.959C377.711 373.361 370.734 376.062 363.082 376.062ZM251.001 629.933C238.847 629.933 228.494 626.332 219.942 619.13C211.84 611.477 207.788 600.674 207.788 586.721C207.788 579.519 209.139 571.191 211.84 561.739C214.99 551.836 218.591 542.833 222.643 534.731C227.144 526.179 230.97 519.202 234.121 513.8C237.722 508.399 239.522 505.698 239.522 505.698L305.691 407.796C308.392 405.545 311.768 404.195 315.819 403.744C319.87 402.844 324.146 402.394 328.647 402.394C334.949 402.394 340.351 403.069 344.852 404.42C349.353 405.32 351.154 406.895 350.253 409.146L283.41 508.399C282.059 510.199 277.558 516.501 269.906 527.304C262.704 537.657 255.727 549.135 248.975 561.739C240.423 577.493 236.146 590.997 236.146 602.25C236.146 614.403 241.773 620.48 253.026 620.48C256.627 620.48 260.903 619.805 265.855 618.454C271.256 616.654 277.333 613.953 284.085 610.352C312.443 594.598 341.476 562.639 371.184 514.475C372.534 512.225 373.66 511.099 374.56 511.099C375.91 510.649 376.811 510.424 377.261 510.424C379.511 510.424 380.862 511.324 381.312 513.125C382.212 514.475 381.987 516.276 380.637 518.526C364.432 543.283 348.453 564.664 332.698 582.669C317.394 600.674 301.19 613.728 284.085 621.83C272.832 627.232 261.804 629.933 251.001 629.933ZM363.857 828.438C362.057 828.438 359.806 828.213 357.105 827.763C354.855 827.763 352.604 827.538 350.353 827.088C337.75 824.837 328.522 817.185 322.671 804.131C316.819 791.078 313.893 775.098 313.893 756.193C313.893 741.789 315.694 725.584 319.295 707.579C322.446 694.526 326.722 679.671 332.123 663.017C337.525 646.362 343.827 629.257 351.029 611.702C358.231 594.148 365.208 577.718 371.96 562.414C366.558 554.762 363.857 545.759 363.857 535.406C363.857 527.304 365.433 520.102 368.584 513.8C371.734 507.498 376.236 504.348 382.087 504.348C387.039 504.348 391.99 506.823 396.942 511.775C410.445 485.217 425.074 457.084 440.829 427.376C457.033 397.668 474.363 368.184 492.818 338.926C511.273 309.218 531.079 281.31 552.235 255.203C573.841 228.645 596.797 205.464 621.104 185.659C631.457 177.556 641.81 171.029 652.163 166.078C662.966 161.127 673.094 158.651 682.546 158.651C690.198 158.651 696.95 160.226 702.802 163.377C706.403 165.178 709.329 168.104 711.579 172.155C713.83 175.756 714.955 180.707 714.955 187.009C714.955 196.912 710.679 210.64 702.127 228.195C693.574 245.3 678.495 266.906 656.889 293.013C633.933 320.921 609.176 348.604 582.618 376.062C556.511 403.519 531.529 428.726 507.672 451.683C483.816 474.639 463.785 493.319 447.581 507.723C445.33 511.324 441.729 517.626 436.778 526.629C432.276 535.631 428.9 542.158 426.65 546.209C430.251 553.411 433.852 562.189 437.453 572.542C441.504 582.894 445.105 592.572 448.256 601.575C468.061 601.125 485.841 596.398 501.596 587.396C517.8 578.393 531.754 568.265 543.457 557.012C555.611 545.309 564.838 534.956 571.14 525.954C577.442 516.951 580.593 512.45 580.593 512.45C581.943 511.099 583.744 510.424 585.994 510.424C587.345 510.424 588.245 511.324 588.695 513.125C589.595 514.475 589.595 516.276 588.695 518.526C569.34 547.785 547.734 570.291 523.877 586.045C500.47 601.35 478.189 609.902 457.033 611.702C455.683 612.153 453.432 612.378 450.281 612.378C457.033 634.434 460.409 656.94 460.409 679.897C460.409 702.403 456.583 724.234 448.931 745.39C441.729 766.546 430.251 785.451 414.496 802.106C405.944 810.658 397.842 817.185 390.19 821.686C382.537 826.187 373.76 828.438 363.857 828.438ZM462.435 475.314C470.087 469.463 480.44 460.01 493.493 446.956C506.997 433.903 522.302 418.599 539.406 401.044C556.511 383.489 574.066 364.583 592.071 344.328C610.526 324.072 628.081 303.816 644.736 283.561C660.04 265.556 671.743 250.252 679.846 237.648C687.948 224.594 693.799 213.791 697.4 205.239C701.001 195.786 702.802 188.809 702.802 184.308C702.802 173.955 698.076 168.779 688.623 168.779C680.071 168.779 670.168 173.28 658.915 182.283C650.362 189.034 641.36 197.362 631.907 207.265C622.905 217.167 614.352 227.295 606.25 237.648C598.598 247.551 591.846 256.553 585.994 264.656C580.593 272.758 576.992 278.159 575.191 280.86C558.987 305.167 543.457 329.474 528.603 353.78C514.199 377.637 501.371 400.143 490.118 421.299C478.864 442.005 469.637 460.01 462.435 475.314ZM436.102 602.25C435.202 598.199 432.952 591.447 429.351 581.994C426.2 572.091 423.274 563.989 420.573 557.687C415.172 568.04 409.77 578.843 404.369 590.096C406.619 592.797 410.67 595.273 416.522 597.524C422.824 599.774 429.351 601.35 436.102 602.25ZM371.284 818.31C376.236 818.31 381.637 816.51 387.489 812.909C393.34 809.308 399.417 803.681 405.719 796.029C419.673 779.374 429.801 760.019 436.102 737.963C442.404 716.357 445.555 694.301 445.555 671.794C445.555 651.539 443.079 631.958 438.128 613.053C423.274 612.153 410.67 607.876 400.317 600.224C389.064 623.631 379.162 648.613 370.609 675.17C362.057 701.728 355.305 725.809 350.353 747.415C348.103 758.669 346.978 768.121 346.978 775.773C346.978 788.377 349.228 798.505 353.729 806.157C358.231 814.259 364.082 818.31 371.284 818.31ZM625.572 627.907C613.869 627.907 602.841 625.206 592.488 619.805C582.135 613.953 574.483 604.726 569.531 592.122C566.38 584.02 564.805 574.792 564.805 564.439C564.805 551.836 567.281 539.457 572.232 527.304C578.534 512.45 587.761 497.821 599.915 483.417C612.068 469.013 625.572 455.959 640.426 444.256C655.28 432.552 670.134 423.325 684.989 416.573C699.843 409.371 713.121 405.77 724.825 405.77C734.727 405.77 742.605 408.471 748.456 413.872C752.507 417.923 754.533 423.775 754.533 431.427C754.533 441.33 750.707 452.808 743.055 465.862C735.853 478.465 725.5 489.493 711.996 498.946C703.444 504.798 693.316 509.749 681.613 513.8C670.359 517.401 658.431 519.202 645.828 519.202C641.776 519.202 637.5 518.977 632.999 518.526C628.948 518.076 624.897 517.401 620.846 516.501C617.695 520.102 613.869 525.954 609.367 534.056C605.316 541.708 601.715 550.26 598.564 559.713C595.864 569.166 594.513 578.168 594.513 586.721C594.963 598.424 598.114 606.751 603.966 611.702C610.268 616.204 617.695 618.454 626.247 618.454C643.352 618.454 659.782 613.053 675.536 602.25C691.74 590.997 706.37 577.268 719.423 561.063C732.477 544.859 743.505 529.329 752.507 514.475C753.858 512.675 754.983 511.775 755.883 511.775C756.784 511.324 757.459 511.099 757.909 511.099C759.259 511.099 760.385 511.775 761.285 513.125C762.635 514.475 762.86 516.276 761.96 518.526C756.108 527.979 748.456 539.232 739.004 552.286C730.001 565.34 719.198 577.943 706.595 590.096C694.441 601.8 680.712 611.477 665.408 619.13C659.556 622.28 653.03 624.531 645.828 625.881C639.076 627.232 632.324 627.907 625.572 627.907ZM639.751 509.749C660.907 509.749 680.037 504.348 697.142 493.544C714.697 482.291 727.3 468.788 734.953 453.033C737.203 449.432 738.554 446.056 739.004 442.905C739.904 439.754 740.354 437.279 740.354 435.478C740.354 427.826 736.078 424 727.525 424C722.124 424 716.047 425.35 709.295 428.051C702.994 430.752 697.367 433.903 692.416 437.504C683.863 443.806 674.861 451.683 665.408 461.135C656.406 470.138 648.303 479.14 641.101 488.143C633.899 496.695 628.498 503.447 624.897 508.399C627.147 508.849 629.623 509.299 632.324 509.749C635.025 509.749 637.5 509.749 639.751 509.749Z"
      fill="#E6E3E0" />
    <path
      d="M265.904 833.922C265.151 833.922 263.645 833.168 261.385 831.662C259.126 830.156 257.243 829.403 255.737 829.403H252.348C251.594 830.156 250.465 830.532 248.958 830.532C245.946 823.754 241.427 818.482 235.402 814.716C233.896 813.963 230.883 813.587 226.364 813.587C221.092 806.055 212.431 800.03 200.381 795.511C200.381 795.511 200.381 795.135 200.381 794.382C200.381 794.382 200.757 794.005 201.51 793.252C198.498 790.993 196.992 789.863 196.992 789.863C196.239 789.863 195.862 790.239 195.862 790.993H194.732C192.473 790.993 186.071 784.591 175.527 771.787C175.527 770.281 181.552 766.892 193.603 761.62C190.59 760.114 187.577 758.231 184.565 755.972C182.305 754.465 179.293 752.206 175.527 749.193C174.021 743.921 169.125 738.273 160.841 732.248C153.309 726.976 148.791 725.093 147.284 726.599L130.339 722.08C130.339 720.574 129.209 719.068 126.95 717.561C124.69 716.055 123.937 715.302 124.69 715.302C123.184 715.302 122.431 715.678 122.431 716.432C122.431 717.185 122.054 717.561 121.301 717.561C119.795 717.561 114.146 716.055 104.355 713.042C95.3177 710.783 90.4223 709.653 89.6691 709.653C89.6691 709.653 88.1629 710.406 85.1503 711.913L70.464 696.097C65.9452 697.603 64.4389 698.356 65.9452 698.356C64.4389 698.356 61.8029 696.473 58.0372 692.708C54.2715 689.695 52.0121 688.189 51.2589 688.189C49.7527 688.189 48.9995 688.565 48.9995 689.319C49.7527 690.072 49.7527 690.448 48.9995 690.448C48.2464 690.448 46.7401 689.319 44.4807 687.059C42.2212 685.553 40.715 684.8 39.9618 684.8H35.443C35.443 684.047 35.8196 683.293 36.5727 682.54C35.0664 681.034 33.9367 680.281 33.1836 680.281C28.6647 680.281 23.3928 679.151 17.3676 676.892C9.83623 673.126 1.55168 669.36 -7.48603 665.595C-16.5237 661.829 -26.6911 657.687 -37.9882 653.168C-120.081 622.289 -165.646 606.85 -174.683 606.85L-182.591 609.109V606.85C-188.616 600.825 -192.382 597.812 -193.888 597.812C-196.901 597.812 -199.16 598.565 -200.667 600.071C-211.211 595.553 -216.106 592.54 -215.353 591.034C-216.106 591.787 -216.483 592.54 -216.483 593.293C-223.261 589.527 -228.533 584.632 -232.299 578.607C-235.311 580.113 -236.817 580.866 -236.817 580.866C-238.324 580.866 -239.453 580.49 -240.206 579.737C-240.206 578.983 -240.583 578.607 -241.336 578.607C-242.842 578.607 -245.478 580.113 -249.244 583.126C-253.01 585.385 -255.646 586.515 -257.152 586.515C-257.905 586.515 -260.165 585.762 -263.93 584.255C-266.943 581.996 -268.826 580.866 -269.579 580.866L-274.098 581.996C-277.11 577.477 -280.5 574.465 -284.265 572.958C-284.265 572.205 -285.018 571.829 -286.525 571.829C-288.031 571.829 -288.784 572.582 -288.784 574.088C-288.784 574.841 -289.537 575.218 -291.043 575.218C-291.797 575.218 -292.173 574.841 -292.173 574.088C-292.173 572.582 -292.55 571.829 -293.303 571.829C-294.809 571.829 -295.939 572.582 -296.692 574.088C-296.692 574.841 -297.069 575.218 -297.822 575.218C-309.119 569.946 -318.533 567.31 -326.065 567.31C-326.818 567.31 -327.947 568.063 -329.454 569.569C-330.96 568.063 -332.843 566.18 -335.102 563.921C-337.362 560.908 -339.998 559.402 -343.01 559.402L-350.918 561.661H-354.307C-355.06 561.661 -356.567 561.661 -358.826 561.661C-360.332 561.661 -362.215 561.285 -364.475 560.532L-367.864 563.921C-370.123 560.908 -373.889 557.142 -379.161 552.624C-380.667 553.377 -384.433 556.766 -390.458 562.791C-391.211 563.544 -391.964 565.05 -392.717 567.31C-393.471 568.816 -394.6 570.699 -396.107 572.958C-401.379 578.23 -407.027 583.879 -413.052 589.904C-418.324 595.176 -420.96 599.695 -420.96 603.461C-423.22 604.214 -425.479 605.343 -427.739 606.85C-429.245 609.109 -430.751 610.992 -432.257 612.498C-432.257 614.004 -434.893 618.523 -440.165 626.055C-442.425 626.808 -443.554 626.808 -443.554 626.055C-442.801 626.055 -443.931 627.561 -446.944 630.574C-449.203 633.586 -456.734 640.364 -469.538 650.908C-470.291 651.662 -472.927 652.791 -477.446 654.298L-494.391 670.113C-496.651 670.867 -497.781 671.243 -497.781 671.243L-516.986 684.8L-522.634 681.411C-523.387 681.411 -524.141 681.787 -524.894 682.54C-525.647 684.047 -526.4 684.8 -527.153 684.8C-527.906 684.8 -528.283 684.047 -528.283 682.54C-529.036 681.787 -529.789 681.411 -530.542 681.411C-529.036 681.411 -530.919 682.917 -536.191 685.929L-546.358 678.021L-553.136 681.411C-553.136 681.411 -554.643 679.528 -557.655 675.762C-560.668 671.996 -562.927 670.113 -564.434 670.113C-564.434 669.36 -563.68 668.231 -562.174 666.724L-565.563 659.946V656.557C-565.563 654.298 -565.94 650.908 -566.693 646.39C-567.446 642.624 -568.952 638.105 -571.212 632.833C-571.212 629.067 -569.706 625.302 -566.693 621.536C-562.927 618.523 -561.044 615.511 -561.044 612.498L-549.747 618.147C-549.747 619.653 -549.747 621.536 -549.747 623.795C-549.747 626.055 -549.371 628.691 -548.618 631.703C-544.099 643 -538.074 650.155 -530.542 653.168C-529.789 653.921 -529.036 655.804 -528.283 658.816C-526.777 661.829 -525.647 663.335 -524.894 663.335C-523.387 663.335 -523.011 662.959 -523.764 662.205H-522.634L-518.115 665.595C-516.609 661.829 -514.35 659.946 -511.337 659.946C-510.584 659.946 -510.207 660.323 -510.207 661.076C-510.207 661.829 -509.454 662.205 -507.948 662.205C-507.195 662.205 -504.935 659.193 -501.17 653.168C-496.651 647.896 -494.015 645.26 -493.262 645.26C-492.509 645.26 -492.132 645.636 -492.132 646.39H-491.002C-491.755 646.39 -483.847 638.105 -467.278 621.536L-457.111 606.85C-455.605 606.85 -448.45 600.825 -435.646 588.774V579.737C-432.634 575.971 -429.621 571.452 -426.609 566.18C-422.843 560.908 -418.324 555.26 -413.052 549.234C-416.065 549.234 -419.077 549.611 -422.09 550.364C-425.103 551.117 -426.985 551.494 -427.739 551.494C-428.492 551.494 -428.868 551.117 -428.868 550.364C-428.868 548.858 -429.621 548.105 -431.128 548.105C-431.128 548.105 -431.504 548.481 -432.257 549.234C-433.01 549.234 -434.14 549.611 -435.646 550.364H-440.165C-444.684 550.364 -450.333 549.234 -457.111 546.975H-460.5C-461.253 546.975 -462.76 547.728 -465.019 549.234C-466.525 550.741 -468.032 551.494 -469.538 551.494H-480.835C-481.588 551.494 -481.965 551.117 -481.965 550.364C-481.965 548.858 -482.341 548.105 -483.094 548.105C-484.601 548.105 -489.496 549.234 -497.781 551.494C-505.312 553.753 -509.831 554.883 -511.337 554.883C-512.09 554.883 -512.843 554.506 -513.597 553.753C-514.35 553 -515.103 552.624 -515.856 552.624L-524.894 554.883C-525.647 555.636 -526.777 556.766 -528.283 558.272C-529.789 559.778 -531.295 560.532 -532.802 560.532H-533.931C-533.931 559.778 -534.684 559.402 -536.191 559.402C-536.944 559.402 -538.45 560.155 -540.71 561.661C-542.216 563.167 -543.346 563.921 -544.099 563.921C-545.605 563.921 -546.358 563.544 -546.358 562.791H-549.747C-549.747 563.544 -550.5 563.921 -552.007 563.921L-556.526 559.402C-557.279 560.155 -559.162 562.038 -562.174 565.05C-564.434 568.063 -567.07 568.816 -570.082 567.31C-570.835 568.816 -571.588 570.322 -572.342 571.829C-572.342 573.335 -572.342 574.841 -572.342 576.347L-571.212 578.607C-570.459 578.607 -569.329 579.36 -567.823 580.866L-555.396 570.699C-555.396 570.699 -552.383 574.841 -546.358 583.126L-555.396 591.034C-558.408 588.021 -561.798 586.515 -565.563 586.515C-566.316 586.515 -570.082 588.774 -576.86 593.293C-582.885 597.059 -586.275 598.942 -587.028 598.942C-587.781 598.942 -588.534 598.565 -589.287 597.812C-590.04 596.306 -590.793 595.553 -591.547 595.553C-592.3 595.553 -593.053 595.929 -593.806 596.682C-593.806 597.435 -594.559 597.812 -596.065 597.812L-599.455 595.553H-609.622C-610.375 595.553 -610.752 596.306 -610.752 597.812C-610.752 598.565 -611.505 598.942 -613.011 598.942C-613.764 598.942 -614.517 598.565 -615.271 597.812C-615.271 597.059 -615.647 596.682 -616.4 596.682C-620.166 596.682 -623.555 599.318 -626.568 604.59C-628.827 602.331 -631.086 601.201 -633.346 601.201C-635.605 601.201 -638.241 602.707 -641.254 605.72L-645.773 602.331C-646.526 602.331 -646.902 602.707 -646.902 603.461H-648.032L-652.551 598.942C-656.317 598.942 -658.953 595.553 -660.459 588.774L-662.718 576.347V567.31L-658.2 560.532C-648.409 552.247 -642.384 548.105 -640.124 548.105C-638.618 548.105 -636.735 548.481 -634.476 549.234H-629.957C-628.45 549.234 -626.568 548.858 -624.308 548.105C-622.049 546.598 -620.543 545.845 -619.789 545.845C-620.543 545.845 -620.919 546.222 -620.919 546.975C-620.166 546.975 -619.413 546.598 -618.66 545.845H-619.789C-621.296 546.598 -620.543 547.728 -617.53 549.234C-602.467 544.716 -595.312 542.456 -596.065 542.456H-594.936C-594.936 543.209 -594.559 543.586 -593.806 543.586C-592.3 543.586 -590.793 542.833 -589.287 541.326C-587.028 539.82 -585.145 539.067 -583.639 539.067C-579.873 539.067 -574.978 539.067 -568.952 539.067C-562.174 538.314 -555.019 537.561 -547.488 536.808L-536.191 533.418C-534.684 533.418 -534.308 533.795 -535.061 534.548C-535.814 535.301 -535.814 535.678 -535.061 535.678H-523.764C-522.258 535.678 -520.375 535.301 -518.115 534.548C-515.856 533.042 -514.35 532.289 -513.597 532.289C-512.09 532.289 -511.714 532.665 -512.467 533.418C-513.22 534.172 -513.22 534.548 -512.467 534.548H-494.391L-491.002 533.418C-489.496 533.418 -486.86 533.795 -483.094 534.548C-478.575 535.301 -475.94 535.678 -475.186 535.678C-474.433 535.678 -472.927 535.301 -470.668 534.548C-467.655 533.795 -465.396 533.418 -463.889 533.418L-460.5 536.808C-457.488 536.054 -455.228 535.678 -453.722 535.678C-451.462 535.678 -449.956 535.301 -449.203 534.548L-446.944 536.808C-445.437 536.808 -443.178 536.808 -440.165 536.808C-437.153 536.054 -433.764 535.301 -429.998 534.548C-432.257 533.795 -430.751 533.418 -425.479 533.418C-424.726 533.418 -423.596 534.172 -422.09 535.678C-420.584 536.431 -419.454 536.808 -418.701 536.808C-417.948 536.808 -417.571 536.431 -417.571 535.678C-416.818 534.925 -416.065 534.548 -415.312 534.548C-414.559 534.548 -413.805 534.925 -413.052 535.678C-412.299 536.431 -411.546 536.808 -410.793 536.808C-410.04 536.808 -407.404 536.054 -402.885 534.548C-396.86 524.757 -391.211 514.966 -385.939 505.176C-380.667 495.385 -375.772 485.594 -371.253 475.803C-368.994 472.791 -366.734 469.778 -364.475 466.765C-362.215 463 -360.332 458.481 -358.826 453.209C-355.814 452.456 -353.554 449.443 -352.048 444.171C-350.542 444.171 -349.035 443.418 -347.529 441.912C-345.27 439.652 -344.14 435.134 -344.14 428.355C-335.855 417.811 -332.466 410.657 -333.972 406.891L-315.897 383.167C-316.65 378.648 -316.65 374.882 -315.897 371.87C-315.144 371.87 -314.014 370.74 -312.508 368.481C-311.002 366.221 -309.119 365.092 -306.859 365.092C-306.106 365.092 -305.353 365.468 -304.6 366.221C-304.6 359.443 -304.223 355.301 -303.47 353.794C-304.223 351.535 -304.6 349.652 -304.6 348.146L-301.211 341.368C-298.198 340.614 -295.939 339.485 -294.433 337.978C-292.173 336.472 -290.29 334.966 -288.784 333.46C-288.784 333.46 -287.654 330.07 -285.395 323.292C-282.382 316.514 -279.37 313.125 -276.357 313.125C-274.851 307.853 -268.449 298.439 -257.152 284.882L-249.244 263.418C-240.206 258.146 -236.441 251.367 -237.947 243.083C-234.181 237.811 -230.416 233.292 -226.65 229.526C-222.131 225.007 -217.236 220.865 -211.964 217.099L-208.575 210.321C-209.328 209.568 -210.457 209.945 -211.964 211.451L-208.575 202.413C-208.575 202.413 -208.575 203.543 -208.575 205.802C-208.575 208.062 -207.445 208.062 -205.185 205.802C-203.679 203.543 -203.679 201.66 -205.185 200.154C-202.173 197.141 -201.42 194.882 -202.926 193.375C-202.926 192.622 -202.926 192.246 -202.926 192.246V193.375C-202.173 193.375 -201.043 193.375 -199.537 193.375C-196.524 193.375 -195.018 191.116 -195.018 186.597C-195.018 185.091 -194.641 182.078 -193.888 177.559C-193.135 173.041 -192.382 170.028 -191.629 168.522C-191.629 169.275 -190.876 171.158 -189.369 174.17C-188.616 172.664 -187.487 170.781 -185.98 168.522C-184.474 166.262 -182.968 163.626 -181.461 160.614L-172.424 151.576C-170.918 147.81 -170.541 145.928 -171.294 145.928C-169.035 144.421 -165.269 141.032 -159.997 135.76C-159.244 134.254 -158.867 132.748 -158.867 131.241C-158.867 128.982 -158.491 126.346 -157.738 123.333C-152.466 120.321 -149.83 117.308 -149.83 114.296C-146.064 112.789 -142.298 110.153 -138.532 106.388C-139.286 104.881 -139.662 103.375 -139.662 101.869C-139.662 100.363 -140.039 98.4797 -140.792 96.2203C-140.039 95.4671 -139.662 94.714 -139.662 93.9609C-139.662 92.4546 -139.286 91.3249 -138.532 90.5717C-124.976 89.0655 -117.821 83.4169 -117.068 73.6261L-100.122 60.0695C-98.616 58.5633 -98.616 57.4335 -100.122 56.6804C-97.8629 56.6804 -95.6035 52.5381 -93.344 44.2536C-87.3189 39.7348 -82.047 37.0988 -77.5281 36.3456C-78.2812 37.8519 -77.9046 40.1113 -76.3984 43.1239C-74.8921 40.8644 -73.0093 38.2285 -70.7498 35.2159C-67.7373 31.4502 -64.3481 27.3079 -60.5824 22.7891C-61.3356 22.036 -62.0887 22.036 -62.8418 22.7891C-62.8418 22.036 -62.8418 20.9062 -62.8418 19.3999C-62.8418 17.8937 -62.4653 15.6343 -61.7121 12.6217H-57.1933C-55.687 12.6217 -53.8042 11.492 -51.5447 9.23253C-48.5322 6.21996 -46.2727 4.71368 -44.7665 4.71368L-43.6368 5.84344V-3.19427C-41.3773 -5.4537 -39.8711 -5.83027 -39.1179 -4.32396C-37.6116 -5.83027 -36.1053 -7.71314 -34.5991 -9.97258C-32.3396 -12.232 -29.7037 -14.868 -26.6911 -17.8805C-22.1723 -17.1274 -19.9128 -16.7508 -19.9128 -16.7508C-19.1597 -16.7508 -18.03 -15.9977 -16.5237 -14.4914C-8.99229 -26.5416 -5.97972 -32.5668 -7.48603 -32.5668C-2.9672 -32.5668 -0.331195 -32.1902 0.421981 -31.4371C4.18768 -35.9559 6.4471 -38.2153 7.20023 -38.2153C6.4471 -38.2153 7.57681 -36.709 10.5894 -33.6965C18.1208 -41.2279 21.5099 -44.9936 20.7568 -44.9936H23.0162C23.0162 -44.2404 23.3927 -43.8639 24.1459 -43.8639C25.6522 -43.8639 27.1585 -44.9936 28.6647 -47.253C30.171 -49.5124 31.6773 -50.6421 33.1836 -50.6421C34.6898 -49.889 35.8196 -49.5124 36.5727 -49.5124C37.3259 -50.2656 36.9493 -51.3953 35.443 -52.9016C39.9618 -53.6547 47.1167 -57.797 56.9075 -65.3284C57.6607 -65.3284 59.5435 -65.3284 62.5561 -65.3284C66.3218 -65.3284 71.2172 -65.7049 77.2423 -66.4581C81.008 -68.7175 82.8909 -70.2238 82.8909 -70.9769V-69.8472H84.0206C84.7737 -69.8472 85.5269 -70.2238 86.28 -70.9769C87.7863 -71.7301 89.2926 -72.1066 90.7988 -72.1066C90.0457 -72.1066 97.5771 -74.7426 113.393 -80.0146C122.431 -83.0272 130.339 -84.5335 137.117 -84.5335C137.87 -84.5335 138.247 -84.1569 138.247 -83.4038C137.494 -82.6506 137.494 -82.274 138.247 -82.274C139 -82.274 140.506 -82.6506 142.766 -83.4038C145.778 -84.9101 147.661 -85.6632 148.414 -85.6632C149.167 -85.6632 150.297 -84.9101 151.803 -83.4038C154.063 -82.6506 155.569 -82.274 156.322 -82.274C157.828 -82.274 160.464 -84.1569 164.23 -87.9226C166.489 -87.9226 170.255 -88.6757 175.527 -90.182C181.552 -91.6883 184.941 -92.4414 185.695 -92.4414C186.448 -92.4414 187.201 -91.6883 187.954 -90.182C189.46 -89.4289 190.59 -89.0523 191.343 -89.0523C192.096 -89.0523 192.473 -89.4289 192.473 -90.182C193.226 -91.6883 193.979 -92.4414 194.732 -92.4414C195.485 -92.4414 196.615 -91.3117 198.121 -89.0523C199.628 -86.7929 200.757 -85.6632 201.51 -85.6632H213.937L216.197 -83.4038C217.703 -83.4038 218.833 -83.0272 219.586 -82.274H225.234C225.988 -83.0272 226.741 -83.4038 227.494 -83.4038C229 -83.4038 230.506 -82.6506 232.013 -81.1443C234.272 -80.3912 235.778 -80.0146 236.532 -80.0146H238.791C239.544 -80.7678 240.297 -81.1443 241.05 -81.1443C242.557 -81.1443 244.063 -80.0146 245.569 -77.7552C247.829 -76.2489 249.712 -75.4958 251.218 -75.4958C251.971 -75.4958 252.348 -75.8723 252.348 -76.6255H253.477C254.984 -75.1192 256.49 -73.2364 257.996 -70.9769C259.502 -68.7175 264.021 -66.8347 271.553 -65.3284C272.306 -65.3284 273.059 -64.5752 273.812 -63.069C274.565 -61.5627 275.318 -60.8095 276.071 -60.8095C277.578 -61.5627 278.707 -61.9392 279.461 -61.9392C280.214 -61.1861 281.343 -58.5501 282.85 -54.0313C290.381 -52.525 295.277 -49.1359 297.536 -43.8639C300.549 -39.345 303.561 -36.709 306.574 -35.9559V-37.0856L309.963 -21.2697C310.716 -17.504 311.469 -12.6086 312.222 -6.58342C312.975 -1.31142 314.105 5.09029 315.611 12.6217C314.105 14.1279 312.599 14.8811 311.092 14.8811L303.185 52.1616C298.666 72.4964 291.511 89.0655 281.72 101.869L270.423 116.555C271.929 121.074 271.553 124.84 269.293 127.852C262.515 137.643 255.737 142.538 248.958 142.538C247.452 142.538 246.322 142.162 245.569 141.409H242.18C242.933 140.656 243.31 138.773 243.31 135.76C250.088 129.735 253.477 123.71 253.477 117.685L257.996 113.166V108.647C265.527 101.116 269.293 92.078 269.293 81.534C272.306 81.534 274.942 80.4043 277.201 78.1449C274.942 70.6135 273.435 66.4712 272.682 65.7181C273.435 64.2118 274.942 61.9524 277.201 58.9398C280.214 55.9273 280.967 52.5381 279.461 48.7724C278.707 48.0193 277.578 47.6427 276.071 47.6427C277.578 44.6301 279.461 42.7473 281.72 41.9942L283.979 31.8268L277.201 21.6594L285.109 13.7514C286.615 9.23255 285.862 6.21998 282.85 4.71368L286.239 1.32459C286.239 -2.44111 285.109 -3.9474 282.85 -3.19427C281.343 -3.19427 279.837 -4.70055 278.331 -7.71312C276.825 -10.7257 276.071 -18.2571 276.071 -30.3073C273.059 -33.3199 271.176 -36.709 270.423 -40.4747L268.163 -38.2153V-48.3827L265.904 -44.9936C263.645 -45.7467 261.762 -47.6296 260.256 -50.6421C259.502 -53.6547 258.749 -55.161 257.996 -55.161H256.866C256.866 -54.4078 256.49 -54.0313 255.737 -54.0313C254.23 -54.0313 251.971 -55.5376 248.958 -58.5501C245.946 -61.5627 244.063 -63.069 243.31 -63.069C241.804 -63.069 241.05 -62.6924 241.05 -61.9392C241.05 -61.1861 240.297 -60.8095 238.791 -60.8095C238.038 -60.8095 236.908 -61.1861 235.402 -61.9392C234.649 -62.6924 233.896 -63.069 233.142 -63.069C231.636 -63.069 230.883 -62.6924 230.883 -61.9392C230.883 -61.1861 230.506 -60.8095 229.753 -60.8095H226.364C225.611 -61.5627 224.481 -61.9392 222.975 -61.9392C221.469 -61.9392 219.962 -62.6924 218.456 -64.1987L216.197 -61.9392C205.653 -61.9392 200.757 -62.3158 201.51 -63.069C194.732 -63.069 187.201 -60.433 178.916 -55.161C178.163 -57.4204 175.904 -58.5501 172.138 -58.5501H171.008C167.996 -58.5501 165.36 -56.2907 163.1 -51.7719C161.594 -51.7719 160.088 -52.525 158.581 -54.0313C154.816 -53.2781 148.791 -50.2656 140.506 -44.9936C132.975 -39.7216 127.703 -37.0856 124.69 -37.0856H119.042C119.042 -37.0856 117.535 -38.5919 114.523 -41.6045C107.745 -32.5668 103.979 -28.0479 103.226 -28.0479C102.473 -28.0479 99.8365 -27.2948 95.3177 -25.7885C95.3177 -27.2948 94.5645 -28.8011 93.0582 -30.3073C91.552 -28.8011 89.6691 -26.9182 87.4097 -24.6588C85.1503 -23.1525 78.7486 -17.1274 68.2046 -6.58342C62.1795 -8.84286 58.7904 -10.3491 58.0372 -11.1023C56.5309 -11.8554 54.2715 -9.59597 51.2589 -4.32396C48.9995 0.194867 47.1167 3.20741 45.6104 4.71368C46.3636 4.71368 46.3636 4.71368 45.6104 4.71368C45.6104 3.96054 45.2338 3.20741 44.4807 2.45428C40.715 2.45428 37.7024 2.83085 35.443 3.58398C33.9367 7.34968 29.7944 11.4919 23.0162 16.0108L19.627 13.7514L10.5894 21.6594C11.3425 22.4125 11.7191 25.4251 11.7191 30.697C-5.60316 41.241 -12.758 46.513 -9.74542 46.513C-11.2517 46.513 -13.5112 45.0067 -16.5237 41.9942C-18.7831 38.9816 -19.1597 36.7222 -17.6534 35.2159H-19.9128C-24.4317 35.2159 -27.0677 37.8519 -27.8208 43.1239C-27.8208 44.6301 -27.4443 45.0067 -26.6911 44.2536C-24.4317 47.2662 -23.302 49.9021 -23.302 52.1616C-23.302 55.1741 -25.1848 58.5633 -28.9505 62.329C-29.7037 63.8352 -30.4568 65.7181 -31.2099 67.9775C-31.9631 69.4838 -34.2225 72.1198 -37.9882 75.8855C-48.5322 85.6763 -53.4276 92.078 -52.6744 95.0906C-52.6744 94.3374 -53.4276 93.9609 -54.9339 93.9609C-57.9465 93.9609 -60.5824 95.8437 -62.8418 99.6094C-65.1013 103.375 -66.9841 106.388 -68.4904 108.647L-86.5658 126.722L-93.344 140.279L-109.16 153.836C-109.913 154.589 -110.666 156.095 -111.419 158.354C-112.173 160.614 -112.926 163.626 -113.679 167.392C-121.21 168.898 -125.353 171.158 -126.106 174.17C-135.897 185.467 -145.687 200.154 -155.478 218.229L-161.127 222.748C-167.152 231.786 -175.06 243.459 -184.851 257.769C-193.888 271.326 -204.809 287.518 -217.612 306.347C-218.365 307.853 -219.119 309.736 -219.872 311.995C-220.625 314.255 -223.261 316.891 -227.78 319.903C-228.533 320.656 -228.533 321.409 -227.78 322.162C-230.792 325.175 -234.181 329.694 -237.947 335.719L-261.671 378.648C-263.93 380.907 -266.19 383.543 -268.449 386.556C-270.709 388.815 -273.345 392.581 -276.357 397.853C-281.629 406.891 -288.407 417.435 -296.692 429.485C-304.977 440.782 -314.391 453.586 -324.935 467.895L-337.362 489.36C-340.374 490.113 -343.763 492.372 -347.529 496.138C-350.542 500.657 -353.931 506.682 -357.696 514.213C-360.709 520.992 -364.851 529.276 -370.123 539.067C-368.617 540.573 -367.864 541.326 -367.864 541.326C-367.864 541.326 -367.111 540.573 -365.604 539.067H-364.475C-364.475 539.067 -364.851 539.067 -365.604 539.067C-364.851 539.82 -359.956 541.326 -350.918 543.586L-348.659 541.326H-345.27C-343.763 541.326 -341.88 541.703 -339.621 542.456C-337.362 542.456 -334.726 542.833 -331.713 543.586C-327.947 545.845 -327.194 546.975 -329.454 546.975C-327.947 546.975 -327.194 546.598 -327.194 545.845C-327.194 545.092 -326.441 544.716 -324.935 544.716C-324.182 544.716 -323.429 545.092 -322.675 545.845C-321.169 546.598 -319.663 546.975 -318.157 546.975H-315.897C-315.144 546.222 -314.391 545.845 -313.638 545.845C-310.625 545.845 -307.989 546.975 -305.73 549.234C-302.717 550.741 -298.951 551.494 -294.433 551.494C-293.679 551.494 -292.55 551.117 -291.043 550.364C-289.537 548.858 -288.407 548.105 -287.654 548.105C-286.901 548.105 -286.148 548.858 -285.395 550.364C-283.889 551.117 -282.759 551.494 -282.006 551.494C-280.5 551.494 -279.746 551.494 -279.746 551.494C-279.746 550.741 -279.37 549.988 -278.617 549.234C-278.617 549.988 -277.487 551.494 -275.228 553.753C-270.709 552.247 -268.449 551.494 -268.449 551.494C-266.943 551.494 -265.06 552.247 -262.801 553.753C-260.541 555.26 -259.035 556.013 -258.282 556.013C-256.776 556.013 -256.022 555.636 -256.022 554.883H-254.893C-254.14 554.883 -253.01 555.636 -251.504 557.142C-249.244 557.896 -247.361 558.272 -245.855 558.272C-245.102 558.272 -244.349 557.896 -243.596 557.142C-242.842 556.389 -242.089 556.013 -241.336 556.013C-241.336 556.013 -236.817 558.649 -227.78 563.921L-223.261 559.402C-224.014 560.155 -224.391 561.661 -224.391 563.921L-219.872 565.05C-219.119 565.05 -218.742 564.674 -218.742 563.921C-218.742 563.167 -218.365 562.791 -217.612 562.791C-216.859 562.791 -215.729 563.544 -214.223 565.05C-212.717 565.803 -211.211 566.18 -209.704 566.18C-208.951 566.18 -208.951 565.803 -209.704 565.05C-210.457 564.297 -210.081 563.921 -208.575 563.921C-207.821 563.921 -207.068 564.674 -206.315 566.18C-204.809 567.686 -203.303 568.439 -201.796 568.439C-200.29 568.439 -199.16 568.063 -198.407 567.31C-193.888 572.582 -191.252 575.218 -190.499 575.218C-188.24 575.218 -185.98 574.841 -183.721 574.088H-176.943L-167.905 576.347C-166.399 576.347 -165.269 575.594 -164.516 574.088C-163.763 572.582 -163.01 571.829 -162.256 571.829C-163.763 572.582 -159.62 575.594 -149.83 580.866C-146.817 580.866 -143.051 583.126 -138.532 587.645L-132.884 581.996L-129.495 586.515L-127.235 585.385C-125.729 585.385 -123.093 586.891 -119.327 589.904C-115.562 592.163 -113.302 593.293 -112.549 593.293C-111.796 593.293 -111.796 592.917 -112.549 592.163C-112.549 591.41 -112.549 591.034 -112.549 591.034C-112.549 591.034 -112.549 591.41 -112.549 592.163C-111.796 592.163 -108.407 592.163 -102.382 592.163C-101.629 592.163 -100.499 592.917 -98.9926 594.423C-96.7332 595.929 -95.2269 596.682 -94.4738 596.682C-92.9675 596.682 -91.0846 595.553 -88.8252 593.293C-86.5658 597.812 -84.3064 600.071 -82.0469 600.071C-82.8001 600.071 -81.2938 599.318 -77.5281 597.812C-76.0218 598.565 -73.7624 599.318 -70.7498 600.071C-67.7373 600.825 -64.7247 601.954 -61.7121 603.461C-53.4276 608.733 -48.5322 611.368 -47.0259 611.368C-45.5196 611.368 -44.7665 610.992 -44.7665 610.239C-44.7665 609.486 -44.0134 609.109 -42.5071 609.109C-41.7539 609.109 -40.6242 609.862 -39.1179 611.368C-37.6116 612.875 -36.4819 613.628 -35.7288 613.628H-33.4694C-34.2225 612.875 -33.8459 612.498 -32.3397 612.498C-26.3145 612.498 -18.7831 614.758 -9.74542 619.276C-0.707761 624.548 3.4345 627.184 2.68137 627.184C3.4345 627.184 4.94079 626.055 7.20023 623.795C7.95336 624.548 8.32992 625.678 8.32992 627.184C9.08305 629.444 10.2128 630.574 11.7191 630.574H16.2379C19.2505 630.574 24.1459 632.08 30.9242 635.092H32.0539C32.0539 634.339 32.807 633.963 34.3133 633.963C35.0664 633.963 40.3384 636.599 50.1292 641.871C60.6732 647.143 68.5812 650.155 73.8532 650.908C73.8532 650.908 76.8658 652.791 82.8909 656.557C85.1503 656.557 87.7863 656.934 90.7988 657.687C94.5645 659.193 95.6943 659.946 94.188 659.946H97.5771C97.5771 660.699 97.2005 661.452 96.4474 662.205C101.719 665.971 107.745 669.737 114.523 673.503L125.82 675.762L143.895 685.929C144.648 685.929 144.648 686.306 143.895 687.059C143.142 687.812 143.519 688.189 145.025 688.189C144.272 688.189 145.025 687.812 147.284 687.059C147.284 690.072 148.038 691.578 149.544 691.578H160.841C161.594 692.331 161.971 691.955 161.971 690.448C161.971 686.683 160.464 684.8 157.452 684.8C157.452 684.8 157.075 684.8 156.322 684.8C155.569 685.553 154.816 685.929 154.063 685.929C154.816 684.423 155.192 682.917 155.192 681.411C155.192 680.657 155.192 680.281 155.192 680.281C149.92 672.749 147.284 665.595 147.284 658.816C147.284 655.804 148.038 652.038 149.544 647.519L139.376 640.741C139.376 638.482 139 636.222 138.247 633.963L135.987 636.222V631.703C136.74 630.95 137.117 629.444 137.117 627.184C137.117 623.419 135.987 618.147 133.728 611.368C135.987 611.368 137.87 610.615 139.376 609.109C135.611 604.59 131.845 593.67 128.079 576.347C129.586 571.829 130.339 568.439 130.339 566.18C130.339 561.661 129.209 557.142 126.95 552.624C128.456 550.364 128.832 548.858 128.079 548.105L126.95 546.975C130.715 543.209 130.715 541.326 126.95 541.326C127.703 540.573 128.079 537.937 128.079 533.418C128.832 533.418 129.586 533.795 130.339 534.548L135.987 530.029L142.766 567.31C141.259 569.569 141.259 572.582 142.766 576.347L154.063 631.703C157.828 633.963 160.088 636.599 160.841 639.611C162.347 643.377 164.607 648.272 167.619 654.298C167.619 664.088 177.787 683.293 198.121 711.913L215.067 718.691C218.08 720.197 222.222 722.833 227.494 726.599C232.766 730.365 239.544 735.26 247.829 741.285C248.582 743.545 248.205 746.181 246.699 749.193C247.452 753.712 250.841 761.243 256.866 771.787C256.113 772.541 255.36 773.294 254.607 774.047C253.854 775.553 252.348 783.085 250.088 796.641C249.335 797.394 248.958 798.147 248.958 798.901C248.958 804.173 250.465 808.691 253.477 812.457C257.243 816.976 264.021 822.248 273.812 828.273V833.922H265.904ZM272.682 66.8478C272.682 66.8478 272.682 66.4712 272.682 65.7181V66.8478ZM-214.223 591.034C-214.223 591.034 -214.6 591.034 -215.353 591.034H-214.223ZM267.581 606.85C265.322 606.85 263.439 604.967 261.932 601.201C261.179 601.954 260.803 602.707 260.803 603.461H254.024L250.635 596.682C249.882 597.435 249.506 598.189 249.506 598.942C248.752 598.942 247.623 598.189 246.116 596.682L242.727 598.942C238.962 595.176 234.819 590.281 230.3 584.255C226.535 577.477 224.275 570.699 223.522 563.921C222.769 563.167 221.263 562.791 219.003 562.791V553.753C222.016 553 223.899 546.975 224.652 535.678L228.041 531.159V525.51L225.782 523.251L230.3 519.862L242.727 484.841L254.024 472.414V469.025C263.062 463 268.711 456.598 270.97 449.82C273.983 449.82 275.489 448.314 275.489 445.301C285.28 442.288 289.045 437.393 286.786 430.615C288.292 429.862 289.045 429.485 289.045 429.485C289.799 429.485 290.175 429.485 290.175 429.485C290.928 429.485 292.435 430.238 294.694 431.744C296.953 432.498 298.46 432.874 299.213 432.874C300.719 432.874 301.849 432.498 302.602 431.744C304.108 430.991 305.238 430.615 305.991 430.615C309.004 433.627 310.887 435.134 311.64 435.134C315.405 435.134 319.171 433.627 322.937 430.615C322.937 431.368 323.313 432.498 324.066 434.004C324.82 435.51 325.196 436.64 325.196 437.393C325.196 441.159 323.69 444.548 320.677 447.56L324.066 452.079C324.066 457.351 319.548 465.636 310.51 476.933C301.472 486.724 295.071 492.372 291.305 493.879C290.552 494.632 289.799 496.138 289.045 498.397C288.292 499.904 287.163 501.41 285.656 502.916H283.397L281.137 500.657L269.84 515.343C269.84 518.356 266.828 524.004 260.803 532.289C258.543 533.042 256.66 533.418 255.154 533.418C254.401 532.665 254.024 532.665 254.024 533.418V541.326C257.79 548.105 259.296 552.624 258.543 554.883C256.284 559.402 255.154 562.038 255.154 562.791C255.154 562.038 257.414 565.05 261.932 571.829C261.179 572.582 260.803 575.218 260.803 579.737C266.828 580.49 274.736 583.879 284.527 589.904H289.045C292.058 589.904 293.941 589.527 294.694 588.774C296.2 587.268 296.953 586.515 296.953 586.515C297.707 586.515 298.083 586.891 298.083 587.645H299.213C299.966 587.645 301.849 586.138 304.861 583.126C307.874 580.113 309.757 578.607 310.51 578.607C311.263 578.607 311.64 578.983 311.64 579.737C311.64 580.49 312.016 580.866 312.769 580.866C313.523 580.866 315.029 580.49 317.288 579.737C319.548 578.983 321.43 578.607 322.937 578.607V575.218C322.184 574.465 322.184 574.088 322.937 574.088V575.218C323.69 575.971 326.326 577.101 330.845 578.607L329.715 574.088C331.974 573.335 333.857 571.075 335.364 567.31C339.129 567.31 342.518 566.933 345.531 566.18C349.297 564.674 351.18 562.791 351.18 560.532H360.217C360.217 562.038 360.97 562.791 362.477 562.791C370.008 562.791 374.15 557.896 374.903 548.105L381.682 541.326C381.682 541.326 382.435 542.08 383.941 543.586C386.954 540.573 389.59 539.067 391.849 539.067C392.602 539.067 392.979 539.444 392.979 540.197C393.732 540.95 394.862 541.326 396.368 541.326C398.627 541.326 400.887 540.197 403.146 537.937C405.406 535.678 406.535 534.172 406.535 533.418C408.042 531.912 409.925 530.406 412.184 528.9C414.443 527.393 416.326 525.134 417.832 522.121L424.611 525.51C423.858 524.757 431.766 517.979 448.335 505.176C455.866 502.163 459.632 499.904 459.632 498.397C462.644 498.397 465.657 497.268 468.669 495.008V491.619L484.485 483.711V490.489H478.837C478.084 491.243 477.707 493.502 477.707 497.268L451.724 517.602C450.218 517.602 449.841 517.226 450.594 516.473H449.464C450.218 516.473 446.828 520.238 439.297 527.77C437.791 529.276 434.778 530.029 430.259 530.029C420.468 539.067 416.703 543.209 418.962 542.456C418.209 541.703 417.456 541.326 416.703 541.326C415.95 542.08 415.573 543.586 415.573 545.845H414.443C411.431 545.845 406.912 548.858 400.887 554.883C400.134 554.883 399.004 554.883 397.498 554.883C395.991 554.883 394.485 555.26 392.979 556.013C389.966 558.272 386.201 561.285 381.682 565.05C377.916 568.063 373.397 571.829 368.125 576.347H361.347C356.075 580.866 352.309 583.126 350.05 583.126H346.661C345.908 582.373 345.154 581.996 344.401 581.996C343.648 581.996 340.636 583.502 335.364 586.515C330.845 589.527 327.832 591.034 326.326 591.034H325.196C325.196 590.281 324.82 589.904 324.066 589.904C323.313 589.904 320.301 591.41 315.029 594.423C310.51 596.682 307.874 597.812 307.121 597.812H305.991C305.991 597.059 305.238 596.682 303.732 596.682C302.979 596.682 301.849 597.059 300.343 597.812C299.589 598.565 297.707 599.318 294.694 600.071C287.163 603.837 284.903 605.72 287.916 605.72C287.163 605.72 284.903 605.343 281.137 604.59C277.372 603.837 274.736 603.461 273.229 603.461L267.581 606.85ZM493.523 481.452C492.77 481.452 492.017 481.075 491.264 480.322C491.264 478.816 490.887 478.063 490.134 478.063L505.95 461.117C508.963 461.117 510.469 461.87 510.469 463.376C510.469 466.389 507.833 470.155 502.561 474.673C498.042 478.439 495.029 480.699 493.523 481.452ZM345.531 391.075C339.506 391.075 331.221 386.933 320.677 378.648C311.64 369.61 307.121 362.456 307.121 357.184C316.159 353.418 325.949 349.276 336.493 344.757C347.79 339.485 359.464 333.836 371.514 327.811H372.644C369.631 336.096 365.489 342.874 360.217 348.146L362.477 356.054V362.832L356.828 369.61C356.828 383.92 353.062 391.075 345.531 391.075ZM537.432 896.056L535.172 893.796C534.419 893.796 533.289 893.796 531.783 893.796C531.03 893.796 529.147 894.173 526.135 894.926H515.967C515.214 894.926 512.202 893.796 506.93 891.537C502.411 890.031 499.775 889.277 499.022 889.277C497.515 889.277 496.762 889.654 496.762 890.407H495.632C495.632 889.654 486.218 887.018 467.39 882.499C467.39 881.746 468.143 880.616 469.649 879.11C468.143 875.344 465.507 873.461 461.741 873.461C461.741 873.461 461.365 873.461 460.611 873.461C459.858 874.215 458.729 874.968 457.222 875.721C456.469 868.943 453.08 864.047 447.055 861.035C441.03 858.022 438.394 856.516 439.147 856.516C435.381 850.491 433.122 847.102 432.369 846.348C430.862 846.348 429.733 844.466 428.979 840.7C427.473 836.934 426.72 834.298 426.72 832.792C426.72 832.039 424.084 826.767 418.812 816.976C418.812 815.47 418.812 813.21 418.812 810.198C418.059 807.938 417.306 805.302 416.553 802.29L418.812 797.771L414.293 787.603C413.54 785.344 413.917 783.838 415.423 783.085V778.566C415.423 774.8 415.046 771.034 414.293 767.269C413.54 763.503 412.41 759.361 410.904 754.842C414.67 748.817 416.929 743.168 417.682 737.896C418.436 732.624 419.942 725.469 422.201 716.432C423.707 708.147 426.343 697.98 430.109 685.929C430.109 682.917 429.356 680.657 427.85 679.151C427.85 679.151 430.862 677.645 436.887 674.632C439.147 661.076 440.653 654.298 441.406 654.298C442.159 655.051 442.913 654.298 443.666 652.038L448.185 644.13C449.691 641.118 451.574 636.599 453.833 630.574C456.093 624.548 459.105 617.017 462.871 607.979L469.649 596.682C470.402 595.929 471.532 594.423 473.038 592.163C475.298 589.151 477.18 583.502 478.687 575.218C480.193 573.711 481.699 571.075 483.206 567.31C485.465 562.791 489.984 556.013 496.762 546.975C497.515 545.469 498.268 543.209 499.022 540.197C500.528 537.184 502.411 534.548 504.67 532.289L510.319 525.51C513.331 521.745 515.967 517.602 518.227 513.084C521.239 507.812 524.252 501.787 527.264 495.008L547.599 471.284V467.895L545.34 466.765L541.951 463.376C539.691 462.623 537.055 462.247 534.043 462.247H532.913C522.369 462.247 514.838 463.376 510.319 465.636C505.8 467.895 504.294 469.025 505.8 469.025C503.54 469.025 501.658 467.895 500.151 465.636C499.398 459.611 499.398 456.222 500.151 455.468C499.398 454.715 499.022 453.209 499.022 450.95L496.762 447.56L500.151 443.042C503.917 440.029 509.942 432.121 518.227 419.318C523.499 419.318 530.277 416.682 538.561 411.41C537.808 413.669 538.561 415.928 540.821 418.188C540.821 416.682 541.197 415.552 541.951 414.799C549.482 416.305 553.624 417.435 554.377 418.188C558.143 416.682 562.285 415.175 566.804 413.669C571.323 412.163 576.595 411.033 582.62 410.28V411.41L584.88 409.15V405.761C587.139 402.749 590.905 398.983 596.177 394.464C596.177 392.958 596.553 391.451 597.306 389.945L600.696 388.815L601.825 386.556L605.214 382.037C606.721 376.012 610.486 370.363 616.512 365.092C616.512 362.832 616.888 360.949 617.641 359.443C622.913 354.171 628.185 347.769 633.457 340.238L637.976 330.07C641.742 329.317 645.884 324.422 650.403 315.384C656.428 304.84 659.817 299.945 660.57 300.698C661.323 301.451 662.077 301.075 662.83 299.568L670.738 292.79C670.738 292.79 671.491 290.531 672.997 286.012L679.775 281.493L684.294 270.196C688.06 267.936 691.449 264.547 694.462 260.028C695.968 260.028 697.098 259.652 697.851 258.899C699.357 255.133 702.746 249.861 708.018 243.083C710.278 241.576 712.537 238.94 714.796 235.175C717.056 231.409 721.951 227.267 729.483 222.748L735.131 212.581L739.65 210.321C739.65 209.568 739.273 209.191 738.52 209.191C738.52 208.438 738.52 208.062 738.52 208.062C738.52 205.049 740.027 202.413 743.039 200.154C746.805 197.894 750.194 196.765 753.207 196.765L754.336 191.116C754.336 190.363 756.219 188.857 759.985 186.597C760.738 185.091 761.491 183.585 762.244 182.078C762.997 179.819 764.127 177.183 765.633 174.17C767.14 174.17 770.905 171.158 776.93 165.133C778.437 163.626 780.32 161.744 782.579 159.484C784.838 157.225 786.721 154.589 788.228 151.576C795.006 147.057 800.278 143.292 804.044 140.279C807.809 137.266 814.211 133.124 823.249 127.852H827.767C824.755 137.643 820.613 142.538 815.341 142.538H814.211L813.081 141.409C812.328 144.421 810.822 146.681 808.562 148.187C806.303 149.693 803.29 154.589 799.525 162.873L809.692 169.652C811.198 165.133 818.353 158.731 831.157 150.446L836.805 142.538L842.454 135.76C848.479 131.994 852.621 128.982 854.881 126.722C857.14 123.71 862.412 119.191 870.696 113.166C872.956 109.4 874.086 106.764 874.086 105.258C878.604 102.245 881.994 99.6094 884.253 97.35L932.831 47.6427C936.596 47.6427 941.115 42.7473 946.387 32.9565C947.893 32.9565 949.776 31.4502 952.036 28.4376C954.295 25.4251 956.555 23.9188 958.814 23.9188H959.944V25.0485C959.944 24.2953 961.45 22.7891 964.462 20.5296C966.722 19.7765 970.111 17.8936 974.63 14.8811C979.902 11.1154 982.914 9.23253 983.668 9.23253C983.668 9.23253 986.304 11.1154 991.576 14.8811L992.705 21.6594C992.705 22.4125 991.952 23.9188 990.446 26.1782C988.94 27.6845 987.81 32.9565 987.057 41.9942H983.668L979.149 55.5507L950.906 70.2369C949.4 72.4964 946.011 76.2621 940.739 81.534L931.701 86.0529C931.701 84.5466 931.324 83.4169 930.571 82.6638C932.077 78.898 934.713 75.1323 938.479 71.3666V67.9775H935.09L907.977 90.5717C902.705 95.8437 895.55 102.245 886.512 109.777C878.228 116.555 868.06 124.086 856.01 132.371C854.504 135.384 851.491 138.773 846.973 142.538C843.207 146.304 837.935 151.953 831.157 159.484C829.65 162.497 826.261 165.509 820.989 168.522C820.989 169.275 820.613 170.028 819.859 170.781C811.575 179.819 799.525 192.246 783.709 208.062C768.646 223.124 749.817 243.083 727.223 267.936C724.964 268.689 718.186 276.597 706.888 291.66C702.37 293.92 697.098 299.192 691.072 307.476C689.566 307.476 688.436 307.853 687.683 308.606C685.424 313.878 681.282 319.15 675.256 324.422C669.984 329.694 666.595 334.213 665.089 337.978C662.077 341.744 657.934 346.64 652.662 352.665C647.39 357.937 640.989 364.338 633.457 371.87C633.457 373.376 633.081 374.882 632.327 376.389L622.16 388.815C621.407 391.828 618.018 396.723 611.993 403.502C606.721 410.28 604.085 413.669 604.085 413.669L602.955 414.799C607.474 415.552 613.499 415.928 621.03 415.928C628.562 415.928 637.223 416.305 647.014 417.058H670.738C685.047 417.058 691.826 416.682 691.072 415.928C689.566 413.669 690.319 412.163 693.332 411.41L713.667 406.891C715.173 410.657 716.303 412.539 717.056 412.539C718.562 412.539 721.951 411.033 727.223 408.021C733.248 405.008 736.637 403.878 737.391 404.631L744.169 411.41L747.558 408.021L780.32 404.631L781.449 408.021L787.098 404.631C789.357 404.631 790.864 405.761 791.617 408.021C802.161 401.995 813.458 397.477 825.508 394.464L826.638 395.594C825.885 396.347 828.521 395.594 834.546 393.334C836.805 392.581 840.947 392.205 846.973 392.205H848.102C849.609 392.205 850.738 392.205 851.491 392.205C852.998 391.451 854.127 391.075 854.881 391.075C864.671 391.075 870.32 394.087 871.826 400.113V401.242C871.826 405.761 864.295 408.021 849.232 408.021C847.726 408.021 845.843 408.774 843.583 410.28C842.077 411.033 840.571 410.28 839.065 408.021L827.767 411.41C824.755 412.163 822.495 412.539 820.989 412.539C819.483 412.539 818.353 412.539 817.6 412.539H816.47C815.717 412.539 812.328 413.293 806.303 414.799C801.031 416.305 790.864 418.564 775.801 421.577C773.541 421.577 768.269 423.46 759.985 427.226C751.7 430.238 746.805 431.744 745.299 431.744C744.545 431.744 740.78 432.874 734.001 435.134C727.976 436.64 724.211 437.393 722.704 437.393V436.263C722.704 434.757 722.328 434.004 721.575 434.004C720.821 433.251 720.068 433.627 719.315 435.134C719.315 436.64 718.562 437.393 717.056 437.393C714.796 437.393 712.537 437.393 710.278 437.393C708.771 436.64 706.888 436.263 704.629 436.263C691.072 436.263 682.411 439.652 678.646 446.431L674.127 444.171C671.114 441.912 668.478 440.782 666.219 440.782C663.959 440.029 640.612 443.418 596.177 450.95H587.139C587.892 451.703 589.022 452.079 590.528 452.079H602.955C619.524 458.858 628.185 462.623 628.938 463.376L630.068 462.247H632.327C633.081 462.247 636.846 464.13 643.625 467.895C651.156 471.661 655.298 473.544 656.051 473.544L657.181 472.414H658.311C666.595 481.452 675.256 485.971 684.294 485.971C685.8 491.243 689.566 494.255 695.591 495.008C697.851 495.761 701.616 498.774 706.888 504.046C715.173 516.849 722.704 524.381 729.483 526.64L755.466 559.402C755.466 560.155 756.219 562.414 757.725 566.18C759.985 569.193 764.504 574.465 771.282 581.996C771.282 581.243 773.541 586.138 778.06 596.682C781.073 600.448 784.838 607.603 789.357 618.147C789.357 621.159 789.357 624.172 789.357 627.184C790.11 630.95 791.24 635.092 792.746 639.611L795.006 646.39C794.253 646.39 793.5 649.026 792.746 654.298C792.746 660.323 792.37 667.854 791.617 676.892C791.617 685.929 791.24 696.473 790.487 708.524C790.487 712.289 787.851 720.95 782.579 734.507L780.32 736.766L774.671 746.934C774.671 749.193 774.294 751.453 773.541 753.712L755.466 780.825L749.817 784.214L735.131 810.198C729.859 816.976 724.587 821.871 719.315 824.884C714.796 828.65 709.148 833.168 702.37 838.44C700.863 838.44 698.98 838.817 696.721 839.57C693.708 842.583 690.319 845.972 686.554 849.738C682.788 853.503 677.892 856.516 671.867 858.775L651.533 866.683L641.365 875.721C639.859 875.721 631.574 879.487 616.512 887.018C606.721 891.537 596.553 893.796 586.009 893.796C585.256 893.796 584.126 893.043 582.62 891.537C581.114 890.784 579.984 890.407 579.231 890.407L552.118 896.056L540.821 893.796L538.561 894.926L537.432 896.056ZM555.507 847.478L558.896 850.867C558.896 850.867 561.532 849.738 566.804 847.478H571.323C578.854 847.478 588.645 844.089 600.696 837.311C602.202 838.817 603.332 839.57 604.085 839.57C604.838 839.57 608.604 838.817 615.382 837.311C622.913 836.558 628.562 836.181 632.327 836.181L636.846 830.532L639.106 832.792C639.859 832.792 640.989 832.039 642.495 830.532C644.001 829.026 645.507 827.896 647.014 827.143C649.273 826.39 653.415 824.131 659.441 820.365C665.466 817.352 668.102 815.846 667.348 815.846C668.102 815.846 669.608 817.352 671.867 820.365L689.943 810.198L701.24 800.03C702.746 800.03 703.876 799.654 704.629 798.901C707.642 795.888 710.654 792.122 713.667 787.603C717.432 783.838 721.575 779.319 726.093 774.047C727.6 775.553 729.483 776.306 731.742 776.306C734.001 776.306 736.261 774.423 738.52 770.658C741.533 767.645 742.286 765.009 740.78 762.75H750.947L766.763 728.858C766.763 722.833 769.022 717.185 773.541 711.913C773.541 711.16 773.541 710.03 773.541 708.524C773.541 707.017 773.918 705.511 774.671 704.005L775.801 699.486C775.801 694.967 775.801 689.695 775.801 683.67C775.801 678.398 775.424 672.373 774.671 665.595C773.165 654.298 769.776 643.754 764.504 633.963C764.504 631.703 764.88 629.444 765.633 627.184C763.374 624.172 760.738 620.783 757.725 617.017C755.466 613.251 752.83 608.733 749.817 603.461L746.428 589.904C741.909 586.138 737.391 581.619 732.872 576.347C729.859 574.841 726.47 572.582 722.704 569.569C719.692 565.803 716.303 562.038 712.537 558.272L708.018 550.364L698.98 545.845C698.227 544.339 695.215 542.456 689.943 540.197C685.424 537.184 683.541 534.172 684.294 531.159C679.022 531.159 672.244 528.146 663.959 522.121L650.403 511.954H648.143C647.39 512.707 646.637 513.084 645.884 513.084C641.365 513.084 638.353 510.824 636.846 506.305C631.574 503.293 625.926 501.787 619.901 501.787C619.901 501.033 617.265 499.904 611.993 498.397L604.085 492.749L600.696 495.008C594.67 495.008 591.658 491.996 591.658 485.971C591.658 482.205 593.164 480.322 596.177 480.322L597.306 481.452H598.436C600.696 481.452 601.449 478.816 600.696 473.544L598.436 474.673C594.67 473.92 590.152 472.791 584.88 471.284C579.608 469.778 573.582 467.895 566.804 465.636L529.524 518.732C528.771 520.238 528.017 522.121 527.264 524.381C526.511 526.64 525.381 529.276 523.875 532.289C521.616 536.808 518.603 542.456 514.838 549.234C511.825 555.26 507.683 562.414 502.411 570.699C502.411 572.958 501.658 575.218 500.151 577.477C499.398 579.737 498.268 583.126 496.762 587.645C491.49 591.41 488.478 595.929 487.724 601.201C486.218 609.486 482.829 621.536 477.557 637.352C476.804 638.105 476.051 638.858 475.298 639.611C474.544 640.364 474.168 641.494 474.168 643L471.909 657.687L469.649 658.816C468.896 664.088 467.766 669.737 466.26 675.762C464.754 681.787 463.247 687.812 461.741 693.837V701.745C461.741 706.264 460.611 712.289 458.352 719.821C456.093 727.352 454.963 734.884 454.963 742.415C454.963 743.921 455.716 744.674 457.222 744.674C455.716 750.7 455.339 754.089 456.093 754.842C456.093 762.373 457.599 771.034 460.611 780.825C462.118 783.085 463.624 786.474 465.13 790.993C466.637 795.511 468.143 800.407 469.649 805.679C472.662 807.938 475.674 812.08 478.687 818.106H482.076C485.088 821.871 486.595 824.131 486.595 824.884C486.595 826.39 490.737 830.156 499.022 836.181C502.034 836.934 505.423 837.687 509.189 838.44C512.955 839.947 517.474 842.206 522.745 845.219C524.252 845.219 526.511 845.219 529.524 845.219C532.536 845.972 535.925 846.725 539.691 847.478L552.118 849.738C553.624 849.738 554.377 849.361 554.377 848.608L555.507 847.478ZM918.312 611.368C919.065 611.368 918.312 610.239 916.053 607.979C914.546 609.486 911.157 610.239 905.885 610.239C904.379 610.239 902.12 609.486 899.107 607.979C896.848 607.226 895.341 606.85 894.588 606.85C893.835 606.85 891.952 607.226 888.94 607.979C886.68 608.733 884.797 609.109 883.291 609.109C882.538 609.109 880.278 608.356 876.513 606.85C872.747 606.097 870.111 605.72 868.605 605.72C867.852 595.929 859.191 592.163 842.621 594.423V592.163C842.621 586.891 841.492 582.749 839.232 579.737C836.973 576.724 835.09 571.829 833.584 565.05C832.831 564.297 831.324 562.791 829.065 560.532C827.559 557.519 826.806 551.87 826.806 543.586C826.806 543.586 827.559 542.08 829.065 539.067C829.818 538.314 829.065 536.431 826.806 533.418C827.559 532.665 829.065 526.64 831.324 515.343C832.077 511.577 832.454 508.565 832.454 506.305C833.207 504.046 833.584 502.163 833.584 500.657C829.065 496.891 826.806 493.502 826.806 490.489L830.195 482.581C830.948 483.335 833.584 483.711 838.103 483.711H842.621C844.128 481.452 845.634 479.192 847.14 476.933C849.4 473.92 852.036 470.908 855.048 467.895C859.567 467.895 863.709 463.753 867.475 455.468L866.345 450.95C867.099 449.443 867.852 448.314 868.605 447.56C868.605 447.56 868.981 447.56 869.735 447.56C869.735 447.56 869.358 447.56 868.605 447.56C869.358 447.56 870.488 447.937 871.994 448.69C872.747 447.937 874.253 446.431 876.513 444.171C878.772 441.912 882.538 438.899 887.81 435.134C890.069 432.121 893.835 428.355 899.107 423.836C908.145 417.811 913.04 414.799 913.793 414.799C915.3 414.799 918.689 412.539 923.961 408.021C925.467 408.774 926.597 409.527 927.35 410.28C928.103 410.28 928.479 410.28 928.479 410.28C929.986 410.28 936.011 407.644 946.555 402.372C945.802 405.385 946.555 406.891 948.814 406.891H956.722C960.488 404.631 962.371 403.502 962.371 403.502C969.902 403.502 978.94 407.644 989.484 415.928C990.237 416.682 991.367 417.058 992.873 417.058V435.134C991.367 435.134 989.86 434.38 988.354 432.874L983.835 443.042C986.848 447.56 988.354 449.82 988.354 449.82C986.848 450.573 983.082 456.975 977.057 469.025V478.063C974.045 478.063 971.409 478.439 969.149 479.192C957.099 487.477 950.321 491.619 948.814 491.619H946.555C945.802 490.866 945.049 490.489 944.295 490.489C941.283 490.489 937.141 491.996 931.869 495.008C931.115 495.761 929.986 497.268 928.479 499.527C926.973 501.033 925.09 501.787 922.831 501.787H921.701C921.701 501.033 921.325 500.657 920.572 500.657C919.065 500.657 914.923 502.163 908.145 505.176C902.12 507.435 898.73 508.565 897.977 508.565H895.718C894.965 507.812 894.212 507.435 893.458 507.435L890.069 510.824H883.291C880.278 510.824 878.019 510.071 876.513 508.565H861.827C861.827 511.577 860.697 516.096 858.437 522.121C856.931 528.146 856.178 531.536 856.178 532.289C856.178 534.548 858.814 539.82 864.086 548.105C864.839 548.858 866.345 550.741 868.605 553.753C870.864 556.013 874.253 559.025 878.772 562.791C880.278 565.803 882.538 568.816 885.55 571.829C887.057 572.582 888.563 572.958 890.069 572.958C891.576 572.958 893.458 573.335 895.718 574.088L899.107 578.607C901.366 577.101 904.756 577.101 909.274 578.607L914.923 581.996C918.689 581.996 920.572 581.996 920.572 581.996C920.572 581.243 920.572 580.866 920.572 580.866C921.325 581.619 921.325 581.996 920.572 581.996C921.325 582.749 922.078 583.126 922.831 583.126C923.584 583.126 924.337 582.749 925.09 581.996C926.597 580.49 927.726 579.737 928.479 579.737H930.739C930.739 580.49 931.115 580.866 931.869 580.866C934.128 580.866 936.764 579.36 939.777 576.347C942.036 577.101 944.295 577.101 946.555 576.347L947.685 577.477V580.866C946.178 581.619 944.295 582.749 942.036 584.255C939.777 585.762 936.764 587.268 932.998 588.774V593.293C932.998 594.046 934.505 594.423 937.517 594.423C950.321 594.423 960.488 590.657 968.019 583.126C969.526 583.879 970.655 584.632 971.409 585.385C972.162 585.385 972.538 585.385 972.538 585.385C974.045 585.385 974.798 584.632 974.798 583.126H980.446C981.952 582.373 984.212 580.49 987.224 577.477C990.237 573.711 993.25 571.829 996.262 571.829L1000.78 572.958L1004.17 563.921L1007.56 566.18C1009.07 564.674 1012.45 563.921 1017.73 563.921C1017.73 563.921 1017.73 563.544 1017.73 562.791C1017.73 562.038 1018.1 561.285 1018.86 560.532C1026.39 559.025 1035.8 552.624 1047.1 541.326H1051.62L1068.56 527.77C1068.56 526.264 1069.69 524.004 1071.95 520.992C1072.71 520.992 1073.84 521.745 1075.34 523.251L1085.51 509.695C1087.77 509.695 1090.4 508.565 1093.42 506.305L1096.81 509.695L1088.9 519.862C1084.38 522.874 1078.73 527.393 1071.95 533.418C1065.17 539.444 1057.64 546.598 1049.36 554.883C1044.09 554.883 1041.07 556.389 1040.32 559.402C1033.54 562.414 1029.02 565.803 1026.76 569.569L1023.38 566.18C1022.62 566.933 1020.36 568.816 1016.6 571.829C1013.58 574.088 1008.31 577.101 1000.78 580.866C999.275 582.373 997.015 584.632 994.003 587.645C990.99 589.904 987.978 591.034 984.965 591.034C983.459 591.034 983.082 590.657 983.835 589.904H982.706C979.693 589.904 976.681 591.034 973.668 593.293C970.655 595.553 969.149 597.435 969.149 598.942C968.396 598.942 967.266 598.189 965.76 596.682C955.969 601.954 950.321 604.59 948.814 604.59H946.555L945.425 603.461L928.479 607.979C928.479 607.979 928.479 607.603 928.479 606.85C928.479 606.097 928.103 605.343 927.35 604.59L923.961 609.109C923.208 609.109 922.078 609.486 920.572 610.239C919.818 610.992 919.065 611.368 918.312 611.368ZM891.199 497.268C890.446 495.008 891.199 493.879 893.458 493.879C894.212 493.879 894.588 494.255 894.588 495.008H896.848C897.601 495.008 899.107 493.879 901.366 491.619C904.379 489.36 906.262 488.23 907.015 488.23C907.768 488.23 908.898 488.607 910.404 489.36C911.91 490.113 913.04 490.489 913.793 490.489C912.287 490.489 914.17 487.853 919.442 482.581L922.831 484.841C940.153 473.544 948.814 463.753 948.814 455.468C948.814 445.678 943.919 439.652 934.128 437.393C925.09 435.134 916.429 432.874 908.145 430.615C906.638 432.121 905.132 432.874 903.626 432.874C899.86 438.899 895.718 443.418 891.199 446.431C889.693 446.431 885.174 450.196 877.643 457.728C877.643 458.481 875.383 461.87 870.864 467.895C869.358 473.167 867.852 477.309 866.345 480.322C865.592 483.335 865.216 485.594 865.216 487.1C868.228 492.372 871.241 495.008 874.253 495.008H875.383C876.136 494.255 876.889 493.879 877.643 493.879C881.408 493.879 885.927 495.008 891.199 497.268ZM1101.33 504.046V501.787C1101.33 497.268 1103.58 494.632 1108.1 493.879C1107.35 496.891 1105.09 500.28 1101.33 504.046Z"
      fill="#D4CFC9" />
    <path
      d="M59.3889 605.893C56.6881 605.893 53.5372 605.218 49.9362 603.867C46.7854 602.517 44.9849 600.716 44.5347 598.466C44.0846 596.665 45.435 595.765 48.5859 595.765C52.1869 595.765 55.3378 593.739 58.0385 589.688C61.1894 585.637 62.7648 581.586 62.7648 577.535C62.7648 573.484 60.9643 568.307 57.3633 562.005C54.2124 555.704 49.7112 550.527 43.8595 546.476C25.4044 537.924 6.94922 529.146 -11.5059 520.144C-29.9611 511.591 -48.1912 503.039 -66.1962 494.487C-89.6027 514.292 -116.61 530.047 -147.219 541.75C-177.377 553.453 -208.436 559.305 -240.395 559.305C-245.796 559.305 -250.973 558.855 -255.924 557.954C-260.425 557.504 -264.927 556.829 -269.428 555.929V557.279C-273.029 555.029 -277.08 553.903 -281.581 553.903C-285.182 553.903 -288.783 554.578 -292.384 555.929C-295.985 557.279 -298.911 558.855 -301.162 560.655C-305.663 563.806 -309.039 567.407 -311.29 571.458C-313.54 575.509 -313.765 578.885 -311.965 581.586C-311.065 583.386 -310.614 584.287 -310.614 584.287C-310.614 585.637 -311.515 586.312 -313.315 586.312C-315.116 586.312 -317.141 585.637 -319.392 584.287C-325.244 580.236 -328.169 575.284 -328.169 569.433C-328.169 560.43 -322.318 553.678 -310.614 549.177C-305.213 547.376 -299.586 546.701 -293.735 547.151C-309.489 539.049 -321.643 528.021 -330.195 514.067C-338.297 500.113 -342.348 485.934 -342.348 471.53C-342.348 452.625 -334.921 435.745 -320.067 420.891C-305.213 405.587 -282.031 397.935 -250.523 397.935C-236.119 397.935 -219.914 399.96 -201.909 404.011C-183.904 408.062 -164.099 414.589 -142.493 423.592C-131.239 428.093 -119.536 433.72 -107.383 440.472C-94.7792 446.773 -81.7255 453.75 -68.2218 461.402L-66.1962 459.377C-51.7922 444.973 -39.4137 429.218 -29.0608 412.114C-18.2578 394.559 -7.90492 377.004 1.99785 359.449C-8.35504 358.549 -18.933 357.423 -29.736 356.073C-40.539 354.723 -51.117 352.922 -61.4699 350.671C-97.4799 342.569 -126.963 331.316 -149.92 316.912C-172.876 302.508 -190.431 286.529 -202.584 268.974C-205.285 267.623 -208.211 266.723 -211.362 266.273C-214.062 265.823 -216.763 265.598 -219.464 265.598C-221.265 265.598 -223.065 265.598 -224.866 265.598C-226.216 265.598 -227.566 266.048 -228.917 266.948C-226.216 270.999 -224.866 275.275 -224.866 279.777C-224.866 290.13 -228.917 298.682 -237.019 305.434C-242.42 310.385 -247.597 313.761 -252.548 315.562C-257.5 317.362 -262.001 318.713 -266.052 319.613C-270.553 320.963 -275.505 323.889 -280.906 328.39C-286.308 332.441 -289.008 337.168 -289.008 342.569C-289.008 344.82 -288.333 347.07 -286.983 349.321H-287.658C-288.558 349.321 -289.909 349.096 -291.709 348.646C-293.51 347.746 -295.535 345.945 -297.786 343.244C-300.937 338.743 -302.512 332.666 -302.512 325.014C-302.512 315.562 -300.487 305.659 -296.435 295.306C-292.384 284.953 -287.658 276.851 -282.257 270.999C-277.305 266.048 -272.129 262.447 -266.727 260.196C-260.876 257.946 -255.474 256.82 -250.523 256.82C-242.871 256.82 -237.019 258.621 -232.968 262.222C-226.216 258.621 -218.114 257.495 -208.661 258.846C-219.914 238.14 -224.866 216.534 -223.515 194.028C-226.666 185.475 -230.942 179.624 -236.344 176.473C-242.195 171.972 -247.597 169.721 -252.548 169.721C-255.699 169.721 -257.95 170.621 -259.3 172.422C-259.75 173.772 -260.651 174.447 -262.001 174.447C-264.702 174.447 -265.377 171.746 -264.026 166.345C-261.326 157.342 -255.924 152.841 -247.822 152.841C-240.62 152.841 -233.868 156.667 -227.566 164.319C-224.866 167.47 -222.84 171.972 -221.49 177.823C-217.438 158.468 -209.111 140.688 -196.508 124.483C-183.454 108.279 -167.249 95.2251 -147.894 85.3223C-128.088 75.4196 -106.032 70.4682 -81.7255 70.4682C-63.2704 70.4682 -43.6899 73.8441 -22.9841 80.596C3.12315 89.1484 22.9287 101.977 36.4325 119.082C49.9362 136.187 56.6881 153.966 56.6881 172.422C56.6881 190.427 51.0615 205.956 39.8084 219.01C41.1588 223.511 40.4836 228.687 37.7828 234.539C35.5322 239.941 30.8059 244.217 23.6039 247.368C20.453 248.718 16.4019 249.393 11.4505 249.393C1.0976 249.393 -9.03023 247.143 -18.933 242.641C-20.2834 242.191 -21.6337 241.966 -22.9841 241.966C-24.3345 241.516 -25.6849 241.291 -27.0353 241.291C-30.1861 241.291 -33.337 241.741 -36.4879 242.641C-39.1886 243.542 -40.9891 245.117 -41.8894 247.368C-42.7897 249.168 -43.6899 250.744 -44.5902 252.094C-45.0403 252.994 -45.7155 252.544 -46.6157 250.744C-47.516 248.043 -47.9661 246.017 -47.9661 244.667C-47.9661 238.815 -45.2653 233.864 -39.8638 229.813C-34.0122 225.311 -27.0353 222.386 -18.933 221.035C-10.3806 219.685 -4.07884 219.46 -0.0277255 220.36C0.422394 220.81 1.32265 221.035 2.67303 221.035C0.422408 218.785 -0.702905 216.084 -0.702905 212.933C-0.702905 208.882 0.647468 205.956 3.34821 204.156C4.6986 203.255 5.82391 203.255 6.72415 204.156C7.62442 204.606 7.62442 205.506 6.72415 206.856C6.27403 207.757 6.04897 208.882 6.04897 210.232C6.04897 213.383 7.62442 216.084 10.7753 218.334C13.9262 220.585 17.3021 221.71 20.9031 221.71C24.054 220.81 26.7548 219.91 29.0054 219.01C31.7062 217.659 33.9568 216.309 35.7573 214.959C44.3097 203.705 48.5859 190.877 48.5859 176.473C48.5859 159.818 42.2841 143.389 29.6806 127.184C17.5272 110.979 -1.15303 98.6011 -26.3601 90.0487L-30.4112 88.6983C-26.3601 90.9489 -22.534 94.3248 -18.933 98.8261C-14.8819 104.228 -12.8563 110.079 -12.8563 116.381C-12.8563 127.634 -18.933 133.711 -31.0864 134.611C-34.6874 134.611 -37.1631 133.711 -38.5135 131.91C-39.8638 130.11 -39.1886 128.759 -36.4879 127.859C-32.4368 126.509 -30.4112 122.908 -30.4112 117.056C-30.4112 113.455 -31.5365 108.954 -33.7871 103.552C-35.1375 99.9514 -38.0633 96.1253 -42.5646 92.0742C-46.6157 88.0231 -51.117 85.0973 -56.0684 83.2967C-58.319 82.8466 -60.7947 82.6216 -63.4954 82.6216C-66.1962 82.6216 -68.6719 82.6216 -70.9225 82.6216C-92.5286 82.6216 -112.334 87.573 -130.339 97.4757C-148.344 107.378 -163.198 120.432 -174.902 136.637C-186.605 152.391 -194.257 169.721 -197.858 188.626C-193.807 184.575 -189.756 180.974 -185.705 177.823C-181.203 174.672 -175.577 172.197 -168.825 170.396V169.721C-167.024 163.869 -162.748 158.918 -155.996 154.867C-149.244 150.365 -141.367 148.115 -132.365 148.115C-130.114 148.115 -128.088 148.34 -126.288 148.79C-124.037 148.79 -122.012 149.015 -120.211 149.465C-112.559 151.266 -104.457 155.092 -95.9045 160.943C-87.3521 166.795 -80.1501 173.547 -74.2985 181.199C-67.9967 188.851 -64.8458 196.278 -64.8458 203.48C-64.8458 208.432 -65.7461 211.808 -67.5466 213.608C-69.3471 214.959 -70.6975 215.859 -71.5977 216.309C-72.0478 210.457 -74.7486 206.406 -79.7 204.156C-84.2012 201.455 -89.1526 200.104 -94.5541 200.104C-98.6052 200.104 -102.431 200.78 -106.032 202.13C-110.534 203.48 -115.485 204.831 -120.886 206.181C-126.288 207.531 -132.815 207.757 -140.467 206.856C-147.669 205.956 -154.196 202.805 -160.047 197.404C-165.899 192.002 -169.05 185.7 -169.5 178.498C-175.802 180.299 -181.428 183.225 -186.38 187.276C-191.331 191.327 -195.832 197.629 -199.884 206.181C-200.334 224.186 -196.057 242.191 -187.055 260.196C-177.602 277.751 -162.523 293.731 -141.817 308.135C-121.112 322.088 -93.6539 333.117 -59.4443 341.219C-47.741 343.469 -36.4879 345.495 -25.6849 347.295C-14.4317 348.646 -3.17859 349.546 8.07455 349.996C17.9773 332.891 27.8801 315.337 37.7828 297.332C48.1357 278.876 58.9387 259.971 70.1919 240.616C82.7954 219.46 96.0741 198.304 110.028 177.148C124.432 155.542 140.412 135.736 157.966 117.731C175.971 99.2762 196.677 84.4221 220.084 73.1689C229.086 68.2176 238.314 64.8416 247.766 63.0411C257.669 60.7905 266.897 59.6652 275.449 59.6652C296.155 59.6652 313.71 65.2917 328.114 76.5449C342.968 87.798 350.395 103.777 350.395 124.483C350.395 135.736 347.694 148.115 342.293 161.619C336.891 175.122 328.339 189.751 316.636 205.506C282.426 250.518 242.14 286.529 195.777 313.536C149.864 340.093 98.9999 355.173 43.1843 358.774C30.5808 376.779 17.7523 394.784 4.69861 412.789C-8.35504 430.344 -22.0839 447.674 -36.4879 464.778C-37.8383 466.579 -39.4137 468.379 -41.2142 470.18C-42.5646 471.53 -43.915 472.881 -45.2654 474.231L-11.5059 493.811H-9.48036C-1.82822 496.512 6.49911 497.863 15.5016 497.863C22.7036 497.863 28.1051 496.962 31.7061 495.162C31.256 493.811 30.8059 492.686 30.3558 491.786C30.3558 490.435 30.3558 489.085 30.3558 487.735C30.3558 482.333 32.1563 477.607 35.7573 473.556C39.8084 469.054 44.3097 465.904 49.261 464.103C54.6626 462.303 60.0641 461.402 65.4656 461.402C67.7162 461.402 69.7418 461.627 71.5423 462.078C73.3428 462.078 75.1433 462.303 76.9438 462.753C81.8952 463.203 87.5217 462.303 93.8235 460.052C100.575 457.351 103.501 452.85 102.601 446.548C103.501 446.998 104.852 447.899 106.652 449.249C108.453 450.149 109.353 453.525 109.353 459.377C109.353 467.929 105.302 476.932 97.1994 486.384C89.5473 495.837 81.6701 502.364 73.5678 505.965C67.7162 508.215 62.5398 509.341 58.0385 509.341C47.6856 509.341 39.8084 505.965 34.4069 499.213C26.7548 504.164 17.9773 505.965 8.07455 504.614C39.1332 522.619 69.7418 538.824 99.9002 553.228C130.509 568.082 157.741 577.085 181.598 580.236C183.849 580.686 185.874 580.911 187.675 580.911C189.475 580.911 191.276 580.911 193.076 580.911C210.631 580.911 224.585 576.635 234.938 568.082C245.291 559.53 250.467 550.302 250.467 540.399C250.467 530.047 245.516 521.944 235.613 516.093L239.664 510.016C254.068 518.568 261.27 529.146 261.27 541.75C261.27 553.903 254.743 564.931 241.69 574.834C229.086 585.187 212.882 590.363 193.076 590.363C191.276 590.363 189.25 590.363 187 590.363C184.749 590.363 182.498 590.138 180.248 589.688C162.243 587.438 143.337 582.936 123.532 576.184C103.726 569.883 83.2455 562.456 62.0896 553.903C67.041 558.404 70.8671 563.581 73.5678 569.433C76.2686 575.734 77.619 580.911 77.619 584.962C77.619 590.814 75.8185 595.765 72.2174 599.816C68.6165 603.867 64.3403 605.893 59.3889 605.893ZM50.6114 348.646C100.575 343.694 147.163 328.39 190.375 302.733C233.588 276.626 271.623 242.416 304.482 200.104C317.086 184.35 326.088 169.946 331.49 156.892C336.891 143.839 339.592 132.36 339.592 122.458C339.592 110.754 335.991 101.752 328.789 95.4501C322.037 89.1484 312.81 85.9975 301.106 85.9975C282.651 85.9975 259.47 95.2251 231.562 113.68C204.104 131.685 176.422 161.169 148.514 202.13C131.859 226.887 115.43 251.644 99.225 276.401C83.4706 300.707 67.2661 324.789 50.6114 348.646ZM-240.395 549.177C-239.044 549.177 -237.694 549.177 -236.344 549.177C-234.993 549.177 -233.418 548.952 -231.617 548.502C-232.968 548.502 -234.093 548.052 -234.993 547.151C-239.495 544.901 -243.546 542.65 -247.147 540.399C-250.298 538.599 -252.998 536.123 -255.249 532.972C-257.95 528.921 -259.3 524.42 -259.3 519.469C-259.3 515.417 -258.175 511.816 -255.924 508.666C-253.223 505.065 -249.397 503.264 -244.446 503.264C-240.845 503.264 -238.594 504.164 -237.694 505.965C-236.344 507.315 -236.794 508.215 -239.044 508.666C-242.645 509.116 -244.446 512.492 -244.446 518.793C-244.446 521.044 -243.996 523.97 -243.096 527.571C-242.195 530.722 -239.945 534.323 -236.344 538.374C-232.743 542.425 -228.241 545.801 -222.84 548.502C-195.382 546.251 -170.85 539.274 -149.244 527.571C-127.188 516.318 -106.933 501.689 -88.4774 483.684C-101.081 477.382 -113.234 471.98 -124.938 467.479C-149.244 457.126 -171.301 449.924 -191.106 445.873C-210.461 441.372 -227.791 439.121 -243.096 439.121C-270.553 439.121 -291.034 444.748 -304.538 456.001C-317.591 466.804 -324.118 478.957 -324.118 492.461C-324.118 506.415 -317.141 519.244 -303.187 530.947C-288.783 543.1 -267.853 549.177 -240.395 549.177Z"
      fill="#E6E3E0" />
    <g filter="url(#filter0_i_792_770)">
      <path
        d="M303.882 640.706C303.149 641.353 302.524 641.849 302.007 642.194C301.532 642.496 300.821 642.733 299.872 642.905C299.484 643.897 298.967 645.039 298.32 646.333C297.717 647.583 297.048 648.661 296.316 649.566C295.626 650.472 294.893 650.924 294.117 650.924C292.651 650.924 291.551 650.601 290.818 649.954C290.129 649.351 289.676 648.488 289.46 647.367C289.288 646.203 289.202 644.888 289.202 643.423C289.202 641.914 289.331 640.06 289.59 637.861C289.848 635.662 290.236 633.291 290.754 630.747C291.314 628.203 292.004 625.638 292.823 623.051C293.599 620.594 294.44 618.201 295.345 615.873C296.251 613.545 297.566 611.518 299.29 609.794C299.635 609.319 300.045 609.082 300.519 609.082C300.95 609.082 301.317 609.255 301.619 609.6C301.92 609.901 302.05 610.268 302.007 610.699C302.007 610.699 301.985 611.238 301.942 612.316C301.942 613.394 301.877 614.709 301.748 616.261C301.619 617.77 301.424 619.214 301.166 620.594C300.735 622.965 300.002 625.444 298.967 628.031C297.932 630.618 296.898 632.946 295.863 635.015C295.345 636.05 294.742 637.106 294.052 638.184C293.405 639.219 292.845 640.103 292.371 640.836C291.896 641.569 291.659 642 291.659 642.129C291.616 642.345 291.573 642.582 291.53 642.84C291.53 643.099 291.53 643.358 291.53 643.617C291.53 644.824 291.745 646.009 292.177 647.173C292.651 648.337 293.254 648.92 293.987 648.92C294.462 648.92 294.957 648.596 295.475 647.949C296.035 647.26 296.574 646.462 297.092 645.557C297.609 644.608 298.04 643.746 298.385 642.97C297.221 642.366 296.639 641.396 296.639 640.06C296.639 639.672 296.704 639.284 296.833 638.896C297.135 637.861 297.544 637.106 298.062 636.632C298.579 636.158 299.096 635.921 299.614 635.921C300.088 635.921 300.498 636.115 300.842 636.503C301.187 636.848 301.36 637.322 301.36 637.925C301.36 638.4 301.274 638.831 301.101 639.219C301.058 639.434 301.015 639.628 300.972 639.801C300.972 639.93 300.864 640.232 300.648 640.706C301.381 640.491 302.028 640.167 302.589 639.736C303.149 639.262 303.537 639.003 303.753 638.96C303.882 638.917 304.054 638.896 304.27 638.896C304.658 638.896 304.852 639.025 304.852 639.284C304.852 639.628 304.529 640.103 303.882 640.706ZM299.872 613.415C299.484 613.329 298.838 614.299 297.932 616.325C297.027 618.309 296.078 620.982 295.087 624.345C294.785 625.379 294.44 626.694 294.052 628.29C293.664 629.885 293.298 631.545 292.953 633.269C292.608 634.951 292.327 636.481 292.112 637.861C293.492 635.058 294.742 632.536 295.863 630.294C297.027 628.052 297.911 625.961 298.514 624.021C298.989 622.469 299.377 620.809 299.678 619.042C300.023 617.274 300.196 615.873 300.196 614.838C300.196 613.976 300.088 613.501 299.872 613.415ZM321.218 630.618C321.477 631.006 321.606 631.437 321.606 631.911C321.606 632.86 321.283 634.067 320.636 635.533C320.033 636.955 319.408 638.529 318.761 640.254C318.114 641.978 317.769 643.746 317.726 645.557C317.683 647.885 317.64 650.278 317.597 652.735C317.597 655.193 317.317 657.585 316.756 659.914C316.239 662.285 315.139 664.441 313.458 666.381C312.078 667.976 310.612 669.054 309.06 669.614C307.551 670.218 305.956 670.52 304.275 670.52C303.973 670.52 303.649 670.498 303.305 670.455C302.96 670.455 302.615 670.433 302.27 670.39C301.451 670.304 300.567 669.916 299.618 669.226C298.67 668.536 297.851 667.545 297.161 666.251C296.471 664.958 296.126 663.384 296.126 661.53C296.126 660.884 296.191 660.172 296.32 659.396C296.536 658.103 296.859 656.788 297.29 655.451C297.721 654.158 298.346 653.08 299.166 652.218C299.985 651.355 301.084 650.924 302.464 650.924C303.585 650.924 304.641 651.334 305.633 652.153C306.624 653.015 307.443 653.985 308.09 655.063C308.78 656.141 309.233 657.09 309.448 657.909C309.578 658.426 309.685 658.965 309.772 659.526C309.901 660.129 309.966 660.711 309.966 661.272C309.966 662.263 309.772 662.953 309.384 663.341C308.952 663.815 308.414 664.053 307.767 664.053C307.293 664.053 306.732 663.923 306.085 663.664C305.654 663.578 305.137 663.276 304.533 662.759C303.973 662.285 303.693 661.66 303.693 660.884C303.693 660.366 303.8 659.87 304.016 659.396C304.275 658.922 304.49 658.599 304.663 658.426C305.008 658.167 305.245 658.038 305.374 658.038C305.59 658.038 305.74 658.318 305.827 658.879V658.944C305.827 659.116 305.74 659.288 305.568 659.461C305.396 659.633 305.331 659.935 305.374 660.366C305.46 660.97 305.697 661.401 306.085 661.66C306.473 661.961 306.754 662.112 306.926 662.112C307.487 662.112 307.767 661.552 307.767 660.431C307.767 659.526 307.508 658.426 306.991 657.133C306.56 656.055 305.956 655.128 305.18 654.352C304.404 653.576 303.499 653.102 302.464 652.929C301.946 652.843 301.386 652.972 300.782 653.317C300.136 653.662 299.575 654.33 299.101 655.322C298.799 655.882 298.605 656.508 298.519 657.197C298.39 657.887 298.325 658.599 298.325 659.332C298.325 660.151 298.39 660.927 298.519 661.66C298.605 664.031 299.23 665.756 300.394 666.833C301.515 667.954 303.003 668.515 304.857 668.515C305.115 668.515 305.374 668.493 305.633 668.45C305.934 668.45 306.236 668.429 306.538 668.385C307.831 668.213 309.082 667.566 310.289 666.445C311.496 665.324 312.509 664.031 313.328 662.565C314.018 661.315 314.449 660.28 314.622 659.461C314.837 658.642 314.945 657.65 314.945 656.486C314.945 655.753 314.924 654.934 314.881 654.029C314.881 653.123 314.881 652.002 314.881 650.666C314.881 649.803 314.881 648.833 314.881 647.755C314.924 646.678 314.967 645.47 315.01 644.134C312.725 645.341 310.849 645.945 309.384 645.945C308.219 645.945 307.142 645.578 306.15 644.845C305.805 644.587 305.546 644.263 305.374 643.875C305.245 643.444 305.18 642.991 305.18 642.517C305.18 641.482 305.439 640.34 305.956 639.09C306.473 637.796 307.077 636.611 307.767 635.533C308.457 634.412 309.06 633.593 309.578 633.075C309.879 632.558 310.224 632.299 310.612 632.299C310.957 632.299 311.237 632.515 311.453 632.946C311.669 633.334 311.669 633.614 311.453 633.787C310.893 634.261 310.418 634.843 310.03 635.533C309.642 636.222 309.276 636.934 308.931 637.667C308.629 638.4 308.478 639.348 308.478 640.512C308.478 640.943 308.5 641.375 308.543 641.806C308.629 642.237 308.758 642.56 308.931 642.776C309.146 643.034 309.534 643.164 310.095 643.164C310.612 643.164 311.194 643.056 311.841 642.84C312.488 642.582 313.027 642.258 313.458 641.87C314.493 640.922 315.225 639.93 315.657 638.896C316.131 637.818 316.497 636.783 316.756 635.791C316.885 635.274 317.036 634.67 317.209 633.981C317.381 633.248 317.467 632.515 317.467 631.782C317.467 631.523 317.748 631.178 318.308 630.747C318.869 630.273 319.451 630.036 320.054 630.036C320.529 630.036 320.917 630.23 321.218 630.618ZM370.704 633.916C370.704 636.805 370.251 639.197 369.346 641.094C368.484 642.991 367.341 644.737 365.919 646.333C365.531 646.764 364.948 647.281 364.172 647.885C363.396 648.445 362.599 649.006 361.78 649.566C361.004 650.084 360.378 650.536 359.904 650.924C358.309 652.218 356.347 653.188 354.019 653.835C351.734 654.481 349.277 654.805 346.647 654.805C344.62 654.805 342.659 654.675 340.762 654.417C338.908 654.158 337.377 653.554 336.17 652.606C335.006 651.657 334.424 650.17 334.424 648.143C334.424 646.333 334.79 644.393 335.523 642.323C336.299 640.211 337.269 638.141 338.433 636.115C339.597 634.088 340.826 632.234 342.12 630.553C343.413 628.828 344.599 627.449 345.677 626.414C344.944 625.767 344.362 625.034 343.93 624.215C343.542 623.353 343.348 622.426 343.348 621.434C343.348 619.581 343.801 617.834 344.706 616.196C345.612 614.515 346.798 613.049 348.263 611.798C349.729 610.505 351.346 609.492 353.114 608.759C354.924 608.026 356.735 607.66 358.546 607.66C360.098 607.66 361.629 607.832 363.138 608.177C364.647 608.479 365.897 609.061 366.889 609.923C367.923 610.785 368.441 611.992 368.441 613.545C368.441 614.967 368.354 616.088 368.182 616.907C368.01 617.684 367.6 618.222 366.953 618.524C366.35 618.826 365.38 618.977 364.043 618.977C362.707 618.977 361.478 618.697 360.357 618.136C359.236 617.576 358.568 616.994 358.352 616.39C358.309 616.218 358.266 616.024 358.223 615.808C358.223 615.549 358.223 615.269 358.223 614.967C358.223 614.148 358.33 613.329 358.546 612.51C358.762 611.648 359.128 611.216 359.645 611.216C360.292 611.216 360.616 611.518 360.616 612.122C360.616 612.51 360.529 612.984 360.357 613.545C360.227 614.062 360.163 614.558 360.163 615.032C360.163 615.592 360.335 616.067 360.68 616.455C361.068 616.8 361.844 616.972 363.008 616.972C364.259 616.972 365.121 616.735 365.595 616.261C366.069 615.743 366.307 614.838 366.307 613.545C366.307 612.38 365.897 611.54 365.078 611.022C364.259 610.505 363.245 610.182 362.038 610.052C360.874 609.88 359.71 609.794 358.546 609.794C356.994 609.794 355.442 610.095 353.89 610.699C352.381 611.303 350.98 612.143 349.686 613.221C348.436 614.299 347.423 615.549 346.647 616.972C345.871 618.352 345.483 619.839 345.483 621.434C345.483 622.771 346.021 624.021 347.099 625.185C347.875 624.539 348.802 623.87 349.88 623.181C350.958 622.448 352.079 621.844 353.243 621.37C354.407 620.852 355.528 620.594 356.606 620.594C357.339 620.594 357.986 620.895 358.546 621.499C359.15 622.06 359.451 622.685 359.451 623.375C359.451 623.978 359.02 624.711 358.158 625.573C357.339 626.393 356.304 627.125 355.054 627.772C353.804 628.376 352.51 628.678 351.174 628.678C351.001 628.678 350.807 628.678 350.592 628.678C350.419 628.634 350.225 628.591 350.009 628.548C349.104 628.376 348.242 628.074 347.423 627.643C346.129 628.807 344.793 630.337 343.413 632.234C342.077 634.088 340.934 636.136 339.986 638.378C339.08 640.577 338.627 642.819 338.627 645.104C338.627 647.475 339.36 649.329 340.826 650.666C342.335 652.002 344.275 652.67 346.647 652.67C349.018 652.67 351.281 652.153 353.437 651.118C355.593 650.084 357.404 649.006 358.869 647.885C359.602 647.324 360.314 646.742 361.004 646.139C361.693 645.535 362.34 644.91 362.944 644.263C363.806 643.315 364.647 642.388 365.466 641.482C366.328 640.534 367.039 639.478 367.6 638.314C368.204 637.106 368.505 635.64 368.505 633.916C368.505 633.355 368.29 632.881 367.859 632.493C367.428 632.105 366.975 631.911 366.501 631.911C364.905 631.911 363.547 632.105 362.426 632.493C361.348 632.881 360.422 633.7 359.645 634.951C359.473 635.166 359.322 635.403 359.193 635.662C359.063 635.878 358.999 636.158 358.999 636.503C358.999 636.934 359.214 637.236 359.645 637.408C360.077 637.537 360.249 637.818 360.163 638.249V638.766C360.163 638.939 360.12 639.09 360.033 639.219C359.947 639.348 359.667 639.456 359.193 639.542C358.632 639.585 357.986 639.24 357.253 638.508C356.52 637.731 356.153 636.891 356.153 635.985C356.153 635.296 356.326 634.735 356.671 634.304C357.016 633.83 357.425 633.312 357.899 632.752C359.107 631.372 360.378 630.531 361.715 630.23C363.095 629.928 364.69 629.777 366.501 629.777C367.622 629.777 368.592 630.208 369.411 631.07C370.273 631.89 370.704 632.838 370.704 633.916ZM354.407 623.439C353.114 623.439 352.014 623.763 351.109 624.409C350.247 625.013 349.449 625.681 348.716 626.414C349.19 626.63 349.665 626.737 350.139 626.737C350.786 626.737 351.562 626.63 352.467 626.414C353.415 626.198 354.235 625.918 354.924 625.573C355.657 625.185 356.024 624.733 356.024 624.215C356.024 624.043 355.787 623.87 355.313 623.698C354.881 623.525 354.58 623.439 354.407 623.439ZM389.646 643.94C389.301 644.716 388.546 645.643 387.382 646.721C386.261 647.799 384.925 648.747 383.373 649.566C381.864 650.342 380.333 650.73 378.781 650.73C376.539 650.73 375.03 650.084 374.254 648.79C373.478 647.454 373.09 645.664 373.09 643.423C373.09 641.914 373.219 640.06 373.478 637.861C373.737 635.662 374.125 633.291 374.642 630.747C375.159 628.203 375.806 625.638 376.582 623.051C377.358 620.594 378.199 618.201 379.104 615.873C380.01 613.545 381.368 611.518 383.179 609.794C383.48 609.319 383.868 609.082 384.343 609.082C384.731 609.082 385.076 609.255 385.377 609.6C385.679 609.901 385.809 610.268 385.765 610.699C385.765 610.699 385.744 611.238 385.701 612.316C385.701 613.394 385.636 614.709 385.507 616.261C385.377 617.77 385.183 619.214 384.925 620.594C384.537 622.922 383.825 625.379 382.791 627.966C381.799 630.553 380.743 632.903 379.622 635.015C378.716 636.783 377.983 638.055 377.423 638.831C376.906 639.607 376.496 640.167 376.194 640.512C375.935 640.857 375.741 641.31 375.612 641.87C375.569 642.172 375.526 642.517 375.483 642.905C375.483 643.25 375.483 643.617 375.483 644.005C375.483 644.781 375.526 645.535 375.612 646.268C375.741 646.958 375.892 647.411 376.065 647.626C376.539 648.1 377.056 648.445 377.617 648.661C378.177 648.876 378.738 648.984 379.298 648.984C379.773 648.984 380.204 648.92 380.592 648.79C382.058 648.359 383.545 647.648 385.054 646.656C386.606 645.664 387.706 644.694 388.352 643.746C388.654 643.315 388.891 643.034 389.064 642.905C389.279 642.733 389.452 642.646 389.581 642.646C389.797 642.646 389.904 642.797 389.904 643.099C389.904 643.185 389.883 643.315 389.84 643.487C389.797 643.617 389.732 643.767 389.646 643.94ZM383.761 613.415C383.329 613.329 382.64 614.278 381.691 616.261C380.786 618.244 379.837 620.939 378.846 624.345C378.544 625.379 378.199 626.694 377.811 628.29C377.466 629.885 377.121 631.545 376.776 633.269C376.431 634.951 376.173 636.481 376 637.861C377.38 635.058 378.63 632.536 379.751 630.294C380.872 628.052 381.734 625.961 382.338 624.021C382.898 622.469 383.308 620.809 383.567 619.042C383.868 617.274 384.019 615.873 384.019 614.838C384.019 614.019 383.933 613.545 383.761 613.415ZM402.846 640.706C402.113 641.353 401.488 641.849 400.971 642.194C400.496 642.496 399.785 642.733 398.837 642.905C398.448 643.897 397.931 645.039 397.284 646.333C396.681 647.583 396.013 648.661 395.28 649.566C394.59 650.472 393.857 650.924 393.081 650.924C391.615 650.924 390.516 650.601 389.783 649.954C389.093 649.351 388.64 648.488 388.424 647.367C388.252 646.203 388.166 644.888 388.166 643.423C388.166 641.914 388.295 640.06 388.554 637.861C388.813 635.662 389.201 633.291 389.718 630.747C390.278 628.203 390.968 625.638 391.787 623.051C392.563 620.594 393.404 618.201 394.31 615.873C395.215 613.545 396.53 611.518 398.254 609.794C398.599 609.319 399.009 609.082 399.483 609.082C399.914 609.082 400.281 609.255 400.583 609.6C400.884 609.901 401.014 610.268 400.971 610.699C400.971 610.699 400.949 611.238 400.906 612.316C400.906 613.394 400.841 614.709 400.712 616.261C400.583 617.77 400.389 619.214 400.13 620.594C399.699 622.965 398.966 625.444 397.931 628.031C396.896 630.618 395.862 632.946 394.827 635.015C394.31 636.05 393.706 637.106 393.016 638.184C392.369 639.219 391.809 640.103 391.335 640.836C390.86 641.569 390.623 642 390.623 642.129C390.58 642.345 390.537 642.582 390.494 642.84C390.494 643.099 390.494 643.358 390.494 643.617C390.494 644.824 390.71 646.009 391.141 647.173C391.615 648.337 392.219 648.92 392.951 648.92C393.426 648.92 393.922 648.596 394.439 647.949C394.999 647.26 395.538 646.462 396.056 645.557C396.573 644.608 397.004 643.746 397.349 642.97C396.185 642.366 395.603 641.396 395.603 640.06C395.603 639.672 395.668 639.284 395.797 638.896C396.099 637.861 396.508 637.106 397.026 636.632C397.543 636.158 398.06 635.921 398.578 635.921C399.052 635.921 399.462 636.115 399.807 636.503C400.151 636.848 400.324 637.322 400.324 637.925C400.324 638.4 400.238 638.831 400.065 639.219C400.022 639.434 399.979 639.628 399.936 639.801C399.936 639.93 399.828 640.232 399.613 640.706C400.345 640.491 400.992 640.167 401.553 639.736C402.113 639.262 402.501 639.003 402.717 638.96C402.846 638.917 403.019 638.896 403.234 638.896C403.622 638.896 403.816 639.025 403.816 639.284C403.816 639.628 403.493 640.103 402.846 640.706ZM398.837 613.415C398.448 613.329 397.802 614.299 396.896 616.325C395.991 618.309 395.042 620.982 394.051 624.345C393.749 625.379 393.404 626.694 393.016 628.29C392.628 629.885 392.262 631.545 391.917 633.269C391.572 634.951 391.292 636.481 391.076 637.861C392.456 635.058 393.706 632.536 394.827 630.294C395.991 628.052 396.875 625.961 397.478 624.021C397.953 622.469 398.341 620.809 398.642 619.042C398.987 617.274 399.16 615.873 399.16 614.838C399.16 613.976 399.052 613.501 398.837 613.415ZM417.919 637.602C417.919 638.508 417.725 639.693 417.337 641.159C416.949 642.625 416.432 644.005 415.785 645.298C415.181 646.634 414.491 647.626 413.715 648.273C412.982 648.876 412.271 649.308 411.581 649.566C410.891 649.782 410.331 649.997 409.9 650.213C409.727 650.256 409.533 650.299 409.318 650.342C409.145 650.429 408.951 650.472 408.736 650.472C407.873 650.472 407.205 650.235 406.731 649.76C406.558 649.588 406.278 649.415 405.89 649.243C405.545 649.07 405.222 648.769 404.92 648.337C404.618 647.906 404.467 647.195 404.467 646.203C404.467 645.169 404.597 644.177 404.855 643.228C404.079 642.323 403.691 641.331 403.691 640.254C403.691 639.607 403.842 638.982 404.144 638.378C404.963 636.826 405.998 635.619 407.248 634.757C408.499 633.894 409.684 633.291 410.805 632.946C411.969 632.601 412.767 632.428 413.198 632.428C414.793 632.428 415.979 632.946 416.755 633.981C417.531 635.015 417.919 636.222 417.919 637.602ZM415.267 637.925C415.267 636.934 414.923 636.115 414.233 635.468C413.586 634.821 412.767 634.498 411.775 634.498C410.956 634.498 410.115 634.757 409.253 635.274C408.434 635.748 407.723 636.352 407.119 637.085C406.515 637.818 406.127 638.529 405.955 639.219C405.912 639.478 405.869 639.715 405.826 639.93C405.826 640.146 405.826 640.361 405.826 640.577C406.3 639.542 406.796 638.68 407.313 637.99C407.873 637.3 408.283 636.869 408.542 636.697C408.757 636.524 409.037 636.438 409.382 636.438C409.857 636.438 410.094 636.567 410.094 636.826C410.094 636.999 409.857 637.322 409.382 637.796C408.951 638.227 408.455 638.809 407.895 639.542C407.334 640.232 406.86 641.094 406.472 642.129C406.817 642.56 407.27 642.884 407.83 643.099C408.434 643.272 409.016 643.358 409.576 643.358C410.18 643.358 410.74 643.25 411.258 643.034C411.818 642.776 412.185 642.431 412.357 642C412.4 641.87 412.422 641.763 412.422 641.676C412.465 641.547 412.487 641.439 412.487 641.353C412.487 640.922 412.293 640.663 411.905 640.577C411.56 640.448 411.215 640.405 410.87 640.448H410.74C410.266 640.448 410.029 640.34 410.029 640.124C410.029 639.995 410.072 639.866 410.158 639.736C410.288 639.607 410.396 639.499 410.482 639.413C410.74 639.154 411.021 639.025 411.323 639.025C411.754 639.025 412.228 639.305 412.745 639.866C413.22 640.512 413.457 641.137 413.457 641.741C413.457 642.517 413.069 643.121 412.293 643.552C411.56 643.983 410.74 644.285 409.835 644.457C408.93 644.63 408.24 644.716 407.766 644.716C407.076 644.716 406.515 644.565 406.084 644.263C406.041 644.349 406.02 644.543 406.02 644.845C406.02 646.052 406.343 646.872 406.99 647.303C407.636 647.691 408.175 647.993 408.606 648.208C408.865 648.294 409.081 648.337 409.253 648.337C409.857 648.337 410.482 648.079 411.129 647.561C411.818 647.044 412.422 646.333 412.939 645.427C413.327 644.737 413.694 643.918 414.039 642.97C414.384 642.021 414.664 641.094 414.879 640.189C415.138 639.24 415.267 638.486 415.267 637.925ZM431.835 637.99C431.835 638.982 431.749 639.715 431.577 640.189C431.447 640.663 431.253 641.051 430.995 641.353C430.779 641.655 430.542 642 430.283 642.388C430.025 642.776 429.809 643.358 429.637 644.134C429.507 644.867 429.443 645.945 429.443 647.367C429.443 647.928 429.658 648.381 430.089 648.726C430.52 649.07 431.016 649.243 431.577 649.243C431.835 649.243 431.965 649.329 431.965 649.502C431.965 649.717 431.792 649.976 431.447 650.278C431.145 650.623 430.865 650.795 430.607 650.795C429.658 650.795 428.968 650.429 428.537 649.696C428.106 648.92 427.89 648.1 427.89 647.238C427.89 645.815 427.934 644.694 428.02 643.875C428.106 643.013 428.192 642.215 428.278 641.482C428.365 640.706 428.386 639.758 428.343 638.637C428.3 637.861 428.192 637.257 428.02 636.826C427.847 636.352 427.395 636.115 426.662 636.115C426.274 636.115 425.993 636.179 425.821 636.309C425.692 636.438 425.519 636.654 425.304 636.955C424.829 637.645 424.42 638.615 424.075 639.866C423.773 641.073 423.514 642.366 423.299 643.746C423.126 645.082 422.954 646.29 422.781 647.367C422.652 648.402 422.523 649.092 422.393 649.437C422.264 649.739 422.092 649.954 421.876 650.084C421.704 650.213 421.51 650.278 421.294 650.278C421.122 650.278 420.949 650.235 420.777 650.148C420.647 650.105 420.539 650.062 420.453 650.019C420.238 649.89 420.13 649.674 420.13 649.372C420.13 649.07 420.195 648.726 420.324 648.337C420.496 647.906 420.626 647.518 420.712 647.173C420.798 646.829 420.928 646.225 421.1 645.363C421.316 644.457 421.531 643.53 421.747 642.582C421.962 641.59 422.135 640.749 422.264 640.06C422.436 639.327 422.523 638.96 422.523 638.96C422.307 638.96 422.092 638.982 421.876 639.025C421.66 639.025 421.445 639.025 421.229 639.025C420.583 639.025 420.259 638.766 420.259 638.249C420.259 637.904 420.389 637.387 420.647 636.697C420.906 636.007 421.38 635.102 422.07 633.981C422.286 633.636 422.717 633.205 423.363 632.687C424.01 632.17 424.549 631.954 424.98 632.04C425.153 631.954 425.304 631.911 425.433 631.911C425.562 631.911 425.67 631.911 425.756 631.911C426.231 631.911 426.489 632.084 426.532 632.428C426.619 632.73 426.64 633.054 426.597 633.399C426.554 633.7 426.575 633.83 426.662 633.787C427.265 633.528 427.869 633.399 428.472 633.399C429.378 633.399 430.154 633.765 430.801 634.498C431.49 635.188 431.835 636.352 431.835 637.99ZM454.837 630.618C455.096 630.919 455.225 631.415 455.225 632.105C455.225 633.054 455.009 634.261 454.578 635.727C454.19 637.193 453.716 638.766 453.155 640.448C452.638 642.129 452.164 643.811 451.733 645.492C451.345 647.13 451.129 648.639 451.086 650.019C451.043 651.743 450.935 653.231 450.763 654.481C450.633 655.732 450.418 656.939 450.116 658.103C449.814 659.267 449.383 660.582 448.823 662.048C448.305 663.514 447.615 665.346 446.753 667.545C445.072 669.614 443.261 671.037 441.321 671.813C439.381 672.632 437.376 672.956 435.306 672.783C434.487 672.697 433.625 672.158 432.719 671.166C431.771 670.175 430.973 668.86 430.327 667.221C429.68 665.583 429.357 663.794 429.357 661.854C429.357 661.078 429.421 660.302 429.551 659.526C429.766 658.232 430.09 656.939 430.521 655.645C430.952 654.352 431.577 653.274 432.396 652.412C433.215 651.549 434.315 651.118 435.694 651.118C436.815 651.118 437.85 651.528 438.799 652.347C439.79 653.209 440.609 654.179 441.256 655.257C441.946 656.335 442.399 657.284 442.614 658.103C442.743 658.62 442.851 659.159 442.937 659.72C443.067 660.323 443.131 660.905 443.131 661.466C443.131 662.457 442.937 663.147 442.549 663.535C442.118 664.009 441.601 664.247 440.997 664.247C440.48 664.247 439.898 664.117 439.251 663.859C438.82 663.772 438.324 663.47 437.764 662.953C437.203 662.479 436.923 661.854 436.923 661.078C436.923 660.56 437.031 660.064 437.246 659.59C437.462 659.116 437.656 658.793 437.828 658.62C438.13 658.318 438.367 658.167 438.54 658.167C438.712 658.167 438.82 658.254 438.863 658.426C438.906 658.642 438.949 658.857 438.993 659.073V659.138C438.993 659.267 438.928 659.396 438.799 659.526C438.669 659.698 438.605 659.935 438.605 660.237C438.605 660.97 438.799 661.487 439.187 661.789C439.618 662.134 439.92 662.306 440.092 662.306C440.652 662.306 440.933 661.746 440.933 660.625C440.933 659.72 440.674 658.62 440.157 657.327C439.725 656.249 439.122 655.3 438.346 654.481C437.57 653.705 436.686 653.231 435.694 653.058C435.134 652.972 434.552 653.102 433.948 653.446C433.302 653.835 432.741 654.524 432.267 655.516C431.965 656.076 431.771 656.702 431.685 657.391C431.555 658.081 431.491 658.771 431.491 659.461C431.491 660.366 431.555 661.142 431.685 661.789C431.771 664.29 432.439 666.208 433.69 667.545C434.94 668.924 436.557 669.614 438.54 669.614C438.755 669.614 438.971 669.614 439.187 669.614C439.402 669.614 439.618 669.593 439.833 669.55C441.127 669.377 442.377 668.73 443.584 667.609C444.791 666.532 445.805 665.238 446.624 663.729C447.141 662.824 447.508 661.703 447.723 660.366C447.939 659.073 448.09 657.715 448.176 656.292C448.305 654.869 448.456 653.597 448.629 652.476C448.715 652.088 448.758 651.743 448.758 651.442C448.758 651.183 448.758 650.967 448.758 650.795C448.758 650.321 448.715 649.846 448.629 649.372C448.585 648.855 448.564 647.993 448.564 646.785C448.564 646.44 448.564 646.052 448.564 645.621C448.564 645.19 448.585 644.694 448.629 644.134C446.602 645.255 444.791 645.815 443.196 645.815C441.256 645.815 439.639 644.975 438.346 643.293C437.872 642.69 437.634 642 437.634 641.224C437.634 640.189 437.979 639.111 438.669 637.99C439.402 636.826 440.351 635.727 441.515 634.692C442.722 633.614 444.015 632.709 445.395 631.976C446.818 631.2 448.197 630.704 449.534 630.488C450.138 630.402 450.741 630.273 451.345 630.1C451.991 629.885 452.573 629.777 453.091 629.777C453.824 629.777 454.406 630.057 454.837 630.618ZM451.603 635.403C451.69 635.015 451.776 634.649 451.862 634.304C451.991 633.916 452.056 633.571 452.056 633.269C452.056 633.054 452.035 632.838 451.991 632.622C451.948 632.364 451.819 632.148 451.603 631.976C451.345 631.674 450.935 631.523 450.375 631.523C449.642 631.523 448.758 631.803 447.723 632.364C446.688 632.924 445.675 633.7 444.684 634.692C443.735 635.64 443.002 636.783 442.485 638.119C442.269 638.68 442.054 639.391 441.838 640.254C441.623 641.073 441.515 641.849 441.515 642.582C441.515 643.272 441.623 643.789 441.838 644.134C442.097 644.436 442.571 644.587 443.261 644.587C443.908 644.587 444.619 644.457 445.395 644.199C446.214 643.897 446.904 643.509 447.464 643.034C448.758 641.827 449.685 640.577 450.245 639.284C450.849 637.947 451.302 636.654 451.603 635.403Z"
        fill="#BDBDBD" />
    </g>
  </g>
  <defs>
    <filter id="filter0_i_792_770" x="289.202" y="607.659" width="166.023" height="69.4243" filterUnits="userSpaceOnUse"
      color-interpolation-filters="sRGB">
      <feFlood flood-opacity="0" result="BackgroundImageFix" />
      <feBlend mode="normal" in="SourceGraphic" in2="BackgroundImageFix" result="shape" />
      <feColorMatrix in="SourceAlpha" type="matrix" values="0 0 0 0 0 0 0 0 0 0 0 0 0 0 0 0 0 0 127 0"
        result="hardAlpha" />
      <feOffset dy="4.04193" />
      <feGaussianBlur stdDeviation="2.02096" />
      <feComposite in2="hardAlpha" operator="arithmetic" k2="-1" k3="1" />
      <feColorMatrix type="matrix" values="0 0 0 0 0 0 0 0 0 0 0 0 0 0 0 0 0 0 0.25 0" />
      <feBlend mode="normal" in2="shape" result="effect1_innerShadow_792_770" />
    </filter>
    <clipPath id="clip0_792_770">
      <rect width="536" height="714" fill="white" transform="translate(0 0.990723)" />
    </clipPath>
  </defs>
</svg>