<svg width="970" height="299" viewBox="0 0 970 299" fill="none" xmlns="http://www.w3.org/2000/svg">
<g clip-path="url(#clip0_3_9)">
<path d="M931.5 0.5C931.5 0.5 528.5 92.5 470 99C470 99 464.506 101 478.006 99.5C491.506 98 779.006 68.5 969.006 48.6C964.006 19.6001 931.5 0.5 931.5 0.5Z" fill="#DAE4E2"/>
<path fill-rule="evenodd" clip-rule="evenodd" d="M944.956 40.6513C944.181 40.5357 943.646 39.8136 943.762 39.0384C943.877 38.2632 944.599 37.7284 945.375 37.844C946.63 38.0311 947.494 38.8206 948.031 39.7893C948.545 40.7141 948.804 41.8629 948.929 43.0416C949.166 45.2744 948.959 48.0496 948.592 50.7402L945.683 51.0447L945.698 50.9357L945.713 50.8334C946.114 48.049 946.319 45.3504 946.106 43.3407C945.999 42.329 945.797 41.6126 945.55 41.1665C945.326 40.7643 945.13 40.6772 944.956 40.6513ZM945.681 51.0552C945.682 51.0517 945.682 51.0482 945.683 51.0447L939.765 51.6638C939.514 51.279 939.277 50.8882 939.06 50.4843C938.152 48.7947 937.784 47.1963 938.367 45.4488C938.615 44.7053 938.213 43.9016 937.469 43.6537C936.726 43.4059 935.922 43.8077 935.674 44.5513C934.757 47.3038 935.438 49.7399 936.56 51.8279C936.567 51.8402 936.573 51.8524 936.58 51.8647C936.602 51.9064 936.625 51.9481 936.648 51.9898L934.24 52.2417L936.649 51.9918C936.649 51.9912 936.649 51.9905 936.648 51.9898L939.765 51.6638C939.766 51.6653 939.767 51.6669 939.768 51.6685L945.681 51.0552ZM948.591 50.7534C948.591 50.749 948.592 50.7446 948.592 50.7402L958.175 49.7378C958.175 49.745 958.175 49.7522 958.175 49.7594L948.591 50.7534ZM959.229 56.9546V99.5H970.006V48.5L961.005 49.4417C960.966 48.4873 960.827 47.5731 960.597 46.7342C960.017 44.62 958.704 42.5493 956.479 42.111C955.71 41.9595 954.964 42.46 954.812 43.229C954.661 43.998 955.161 44.7442 955.93 44.8958C956.567 45.0213 957.385 45.7558 957.86 47.4852C958.045 48.1613 958.155 48.9253 958.175 49.7378L961.005 49.4417C961.069 50.988 960.872 52.6396 960.38 54.2464C960.099 55.1655 959.718 56.0785 959.229 56.9546ZM789.006 67.3041C789.304 65.685 790.084 64.1906 791.593 63.4333C792.293 63.0817 793.146 63.3646 793.498 64.0651C793.849 64.7656 793.566 65.6185 792.866 65.97C792.561 66.1232 792.252 66.4522 792.029 66.9906L789.006 67.3041ZM800.138 66.1496C799.678 64.8083 799.315 63.5018 799.117 62.3119C798.922 61.1428 798.865 59.9665 799.112 58.9381C799.372 57.8609 799.993 56.8692 801.153 56.3534C801.869 56.0348 802.707 56.3571 803.026 57.0732C803.345 57.7893 803.022 58.6281 802.306 58.9467C802.145 59.0183 801.98 59.1546 801.872 59.6018C801.753 60.0978 801.75 60.8422 801.917 61.8457C802.113 63.0232 802.514 64.3933 803.042 65.8484L800.138 66.1496ZM822.289 63.8523C822.188 63.5203 822.107 63.1876 822.05 62.8575C821.884 61.8775 821.925 60.7971 822.504 59.8057C822.9 59.1291 823.769 58.9012 824.446 59.2968C825.122 59.6924 825.35 60.5616 824.955 61.2382C824.824 61.4612 824.75 61.7987 824.849 62.3819C824.908 62.7291 825.021 63.1177 825.182 63.5522L822.289 63.8523Z" fill="black"/>
<path fill-rule="evenodd" clip-rule="evenodd" d="M945.686 51.0187C943.79 51.215 941.808 51.4201 939.745 51.6337C940.241 52.3964 940.794 53.1349 941.371 53.9041L941.371 53.9042L941.372 53.9049C941.809 54.4874 942.259 55.0873 942.706 55.7287C943.277 56.5455 943.844 57.4358 944.266 58.3913C944.732 56.3764 945.291 53.7118 945.686 51.0187ZM936.63 51.9561C933.784 52.2506 930.798 52.5596 927.68 52.8823C927.72 53.2521 927.756 53.6282 927.79 54.0076C927.865 54.8438 927.928 55.6975 927.991 56.5551L927.992 56.5598L927.992 56.5607C928.154 58.7494 928.317 60.9627 928.677 62.9731C928.924 64.355 929.25 65.545 929.689 66.4803C930.127 67.4145 930.631 67.9999 931.187 68.3185C932.215 68.9072 934.23 68.9758 938.236 66.3176C941.188 64.3582 941.998 62.8142 942.101 61.6551C942.211 60.4137 941.582 59.0762 940.379 57.3535C940.049 56.8809 939.668 56.3708 939.266 55.8344L939.264 55.8311C938.364 54.6282 937.366 53.2936 936.63 51.9561ZM924.856 53.1745C920.199 53.6565 915.267 54.1668 910.086 54.7029C911.798 55.7636 913.096 56.9629 913.972 58.1729C914.78 59.2899 915.272 60.4859 915.275 61.5921C915.275 61.7601 915.264 61.9243 915.242 62.0839C919.728 63.3713 922.546 65.81 923.957 68.7753C925.533 72.0846 925.163 75.662 924.078 78.2583C923.729 79.0934 923.04 79.8624 922.201 80.5673C921.345 81.2867 920.248 82.0093 918.969 82.7253C916.408 84.158 913.022 85.6176 909.14 87.0043C901.372 89.7789 891.496 92.3048 881.994 93.7435C872.455 95.1878 862.5 95.2799 853.842 94.4623C845.237 93.6497 837.733 91.9219 833.182 89.6072C832.121 89.0676 831.259 88.3684 830.639 87.5076C830.019 86.6472 829.708 85.7202 829.609 84.8062C829.418 83.0373 830.007 81.2053 830.809 79.556C832.178 76.7414 834.451 73.9245 835.995 72.0411C835.63 71.4642 835.445 70.8209 835.367 70.275C835.205 69.1382 835.377 67.8385 835.765 66.5837C836.226 65.0872 837.045 63.4931 838.205 62.1397L825.273 63.4776C825.394 63.8119 825.545 64.1739 825.723 64.5657C825.989 65.1508 826.284 65.7395 826.598 66.3654L826.599 66.3662L826.599 66.367L826.601 66.3705C826.754 66.6764 826.912 66.9912 827.074 67.319C827.549 68.2857 828.031 69.3245 828.381 70.3723C829.074 72.45 829.35 74.8997 827.65 77.0124C826.049 79.0008 822.964 80.3187 818.057 81.0535C814.433 81.5963 811.652 81.4683 809.641 80.6806L808.846 80.9788C804.59 82.5747 800.921 82.5957 797.902 81.5553C794.894 80.5188 792.665 78.4748 791.195 76.1698C789.735 73.8783 788.985 71.2681 788.978 68.9889C788.977 68.3992 789.027 67.7984 789.141 67.2153C647.891 81.8267 477.006 99.5 477.006 99.5L970.006 99.0593V48.5C967.906 48.7179 964.874 49.032 961.004 49.4328C961.069 50.9816 960.872 52.6364 960.38 54.2464C959.58 56.8603 957.978 59.4257 955.357 61.2284C952.726 63.0381 949.185 63.9985 944.657 63.5982L944.532 63.5871C943.839 65.3659 942.283 67.0379 939.805 68.6825C935.664 71.4305 932.325 72.2418 929.776 70.781C928.544 70.075 927.706 68.9375 927.119 67.6849C926.532 66.4333 926.151 64.9723 925.883 63.4729C925.496 61.3072 925.315 58.8597 925.149 56.6212L925.149 56.6204L925.149 56.6175C925.088 55.7952 925.029 55.0011 924.963 54.2597C924.93 53.8843 924.894 53.5222 924.856 53.1745ZM958.174 49.7258C958.205 50.8942 958.049 52.1634 957.666 53.416C957.022 55.5196 955.759 57.5071 953.749 58.8898C952.043 60.0631 949.713 60.8594 946.594 60.85C946.722 60.3376 946.87 59.7267 947.029 59.0407C947.516 56.9353 948.11 54.1058 948.523 51.238C948.548 51.065 948.572 50.8914 948.595 50.7175C952.133 50.3513 955.336 50.0198 958.174 49.7258ZM791.817 68.9809C791.814 68.077 791.963 67.3934 792.186 66.9003L800.228 66.0684C800.683 67.4037 801.235 68.7751 801.817 70.1015C802.982 72.7546 804.31 75.3226 805.342 77.221C805.679 77.8396 805.985 78.3887 806.245 78.8483C803.241 79.6912 800.784 79.5464 798.826 78.8718C796.519 78.0768 794.771 76.4992 793.589 74.6442C792.398 72.7757 791.822 70.6873 791.817 68.9809ZM804.416 68.9607C803.941 67.8783 803.503 66.8012 803.131 65.7681L809.399 65.1196C809.14 65.5382 808.844 66.0333 808.538 66.5843C807.642 68.1935 806.599 70.369 806.105 72.5485C805.536 71.4096 804.957 70.1924 804.416 68.9607ZM822.384 63.7764L812.902 64.7573L812.658 65.3292L812.658 65.3295L812.658 65.3299L812.653 65.3367L812.63 65.3693C812.609 65.3992 812.576 65.4454 812.534 65.5066C812.45 65.629 812.326 65.8114 812.175 66.0442C811.871 66.5106 811.457 67.1757 811.018 67.9646C810.126 69.5665 809.189 71.5801 808.816 73.4401C808.436 75.3355 808.709 76.6465 809.621 77.4264C810.627 78.2874 812.889 78.9576 817.637 78.2465C822.399 77.5333 824.545 76.3434 825.438 75.2327C826.232 74.2463 826.267 73.0058 825.688 71.2707C825.402 70.412 824.99 69.5138 824.526 68.5714C824.391 68.2958 824.249 68.0118 824.104 67.724L824.097 67.7101L824.093 67.7017L824.093 67.7011C823.765 67.0471 823.428 66.3746 823.139 65.7396C822.851 65.1041 822.579 64.441 822.384 63.7764ZM905.023 55.2268C886.86 57.1061 865.925 59.2721 843.281 61.6146C843.207 61.9134 843.021 62.1708 842.732 62.3273C840.674 63.4411 839.188 65.6776 838.538 67.7867C838.212 68.8408 838.132 69.7494 838.22 70.3651C838.245 70.5393 838.276 70.6584 838.303 70.7375C841.255 70.9943 845.72 71.2298 850.057 71.1471C852.343 71.1034 854.571 70.9717 856.513 70.7133C858.474 70.4522 860.055 70.0727 861.104 69.5749C861.765 69.2612 862.66 69.5786 863.102 70.2839C863.544 70.9893 863.367 71.8154 862.706 72.1292C861.317 72.7886 859.428 73.2111 857.37 73.4849C855.293 73.7613 852.952 73.8973 850.602 73.9422C846.245 74.0253 841.779 73.7967 838.742 73.5395L838.553 73.7708C836.992 75.6746 834.76 78.3982 833.454 81.0827C832.709 82.6159 832.362 83.953 832.474 84.991C832.527 85.4805 832.678 85.8664 832.907 86.1847C833.136 86.5027 833.512 86.8481 834.156 87.1753C838.126 89.1948 845.139 90.8781 853.63 91.6799C862.068 92.4768 871.79 92.3868 881.089 90.9787C890.426 89.5649 900.143 87.0788 907.759 84.3585C911.569 82.9976 914.822 81.5891 917.229 80.2423C918.433 79.5686 919.4 78.9238 920.114 78.3241C920.844 77.7099 921.229 77.2082 921.38 76.8473C922.295 74.6592 922.482 71.8932 921.375 69.5691C920.365 67.4477 918.094 65.3237 913.297 64.376C911.936 64.9665 908.339 66.3576 904.144 67.4484C901.783 68.0622 899.199 68.59 896.691 68.8215C894.206 69.051 891.685 69.001 889.493 68.3757C888.704 68.1506 888.144 67.3695 888.243 66.6311C888.342 65.8926 889.062 65.4765 889.851 65.7016C891.504 66.173 893.606 66.2535 895.942 66.0377C896.642 65.9731 897.352 65.883 898.066 65.7723C897.267 65.7527 896.662 65.5642 896.568 65.263C896.435 64.8416 897.353 64.3593 898.617 64.1857C899.881 64.0122 901.012 64.213 901.145 64.6344C901.216 64.8621 900.981 65.1075 900.55 65.3125C901.369 65.138 902.181 64.9439 902.974 64.7378C907.545 63.5493 911.352 61.9974 912.083 61.6468L912.094 61.6416L912.105 61.6366C912.29 61.5524 912.395 61.4109 912.394 61.1233C912.393 60.791 912.234 60.2296 911.707 59.5007C910.72 58.1365 908.596 56.424 905.023 55.2268ZM853.135 69.6329C853.245 69.9841 852.515 70.3813 851.504 70.5202C850.493 70.659 849.584 70.4869 849.474 70.1358C849.364 69.7847 850.094 69.3875 851.105 69.2486C852.116 69.1097 853.025 69.2818 853.135 69.6329ZM880.337 81.4843C881.01 81.3334 881.66 81.1539 882.253 80.9697C881.208 80.9352 880.041 80.9587 878.942 81.1046C879.591 81.1327 880.108 81.2688 880.337 81.4843ZM875.927 81.747C875.652 81.8218 875.381 81.8991 875.117 81.9774C875.297 81.9774 875.48 81.9762 875.664 81.9737C875.727 81.8965 875.816 81.8203 875.927 81.747ZM885.112 80.0003C883.897 79.8012 880.836 79.5083 878.201 79.9252C875.592 80.3377 872.555 81.398 871.361 81.8756L871.737 83.0751C873.122 83.199 876.547 83.3596 879.177 82.9983C881.813 82.6363 884.457 81.6404 885.461 81.1838L887.281 80.3558L885.112 80.0003ZM838.377 70.877C838.376 70.879 838.366 70.8711 838.352 70.8476C838.371 70.8633 838.378 70.8751 838.377 70.877Z" fill="black"/>
<path d="M0.00631714 98.5H970.006V298.5H0.00631714V98.5Z" fill="black"/>
<path d="M970.001 124.185C970.277 124.182 970.503 124.404 970.506 124.68C970.509 124.956 970.288 125.182 970.012 125.185L970.001 124.185ZM476 121V121.5V121ZM-0.500061 121C-0.776184 121 -1.00006 120.776 -1.00006 120.5C-1.00006 120.224 -0.776184 120 -0.500061 120V121ZM970.012 125.185C765.887 127.309 492.81 121.5 476 121.5V120.5C492.87 120.5 765.863 126.309 970.001 124.185L970.012 125.185ZM476 121.5C465.478 121.5 350.852 121.375 236.608 121.25C122.363 121.125 8.49963 121 -0.500061 121V120C8.50031 120 122.365 120.125 236.609 120.25C350.854 120.375 465.478 120.5 476 120.5V121.5Z" fill="url(#paint0_radial_3_9)"/>
<path d="M970.001 122.185C970.277 122.182 970.503 122.404 970.506 122.68C970.509 122.956 970.288 123.182 970.012 123.185L970.001 122.185ZM476.5 119.5L476.536 119.001L476.5 119.5ZM-6.10352e-05 119C-0.276184 119 -0.500061 118.776 -0.500061 118.5C-0.500061 118.224 -0.276184 118 -6.10352e-05 118V119ZM970.012 123.185C765.884 125.309 493.285 121.203 476.464 119.999L476.536 119.001C493.308 120.202 765.866 124.309 970.001 122.185L970.012 123.185ZM476.464 119.999C464.716 119.158 350.997 118.907 237.483 118.868C123.987 118.829 10.7527 119 -6.10352e-05 119V118C10.7473 118 123.99 117.829 237.484 117.868C350.959 117.907 464.74 118.157 476.536 119.001L476.464 119.999Z" fill="url(#paint1_radial_3_9)"/>
<path d="M970.001 120.185C970.277 120.182 970.503 120.404 970.506 120.68C970.509 120.956 970.288 121.182 970.012 121.185L970.001 120.185ZM508 116.5L507.934 116.996L508 116.5ZM-6.10352e-05 117.5C-0.276184 117.5 -0.500061 117.276 -0.500061 117C-0.500061 116.724 -0.276184 116.5 -6.10352e-05 116.5V117.5ZM970.012 121.185C867.941 122.247 756.609 121.759 668.707 120.727C624.757 120.21 586.663 119.558 558.512 118.895C530.384 118.232 512.142 117.559 507.934 116.996L508.066 116.004C512.204 116.558 530.369 117.231 558.536 117.895C586.681 118.558 624.771 119.21 668.719 119.727C756.615 120.759 867.94 121.247 970.001 120.185L970.012 121.185ZM507.934 116.996C504.527 116.54 494.334 116.202 479.015 115.963C463.714 115.725 443.34 115.586 419.605 115.523C372.136 115.398 311.233 115.575 250.611 115.868C129.372 116.454 9.25079 117.5 -6.10352e-05 117.5V116.5C9.24915 116.5 129.356 115.454 250.606 114.868C311.229 114.575 372.135 114.398 419.608 114.523C443.344 114.586 463.723 114.725 479.03 114.963C494.319 115.201 504.587 115.539 508.066 116.004L507.934 116.996Z" fill="url(#paint2_radial_3_9)"/>
<path d="M970.001 118.185C970.277 118.182 970.503 118.404 970.506 118.68C970.509 118.956 970.288 119.182 970.012 119.185L970.001 118.185ZM509 115L509.057 114.503L509 115ZM0.0802612 116.494C-0.192261 116.538 -0.449219 116.353 -0.493591 116.08C-0.537964 115.808 -0.352966 115.551 -0.0803833 115.506L0.0802612 116.494ZM970.012 119.185C867.942 120.247 758.551 119.998 671.745 119.147C584.961 118.296 520.705 116.844 508.943 115.497L509.057 114.503C520.751 115.843 584.933 117.295 671.755 118.147C758.555 118.998 867.939 119.247 970.001 118.185L970.012 119.185ZM508.943 115.497C499.841 114.454 464.841 113.774 417.071 113.398C369.322 113.023 308.856 112.95 248.86 113.118C188.864 113.286 129.338 113.694 83.4689 114.279C60.5339 114.571 41.0145 114.908 26.5579 115.28C12.077 115.654 2.72498 116.063 0.0802612 116.494L-0.0803833 115.506C2.6499 115.062 12.0934 114.653 26.5321 114.281C40.9951 113.908 60.5195 113.571 83.4561 113.279C129.33 112.694 188.859 112.286 248.857 112.118C308.855 111.95 369.325 112.023 417.079 112.398C464.813 112.774 499.887 113.453 509.057 114.503L508.943 115.497Z" fill="url(#paint3_radial_3_9)"/>
<path d="M970.001 116.185C970.277 116.182 970.503 116.404 970.506 116.68C970.509 116.956 970.288 117.182 970.012 117.185L970.001 116.185ZM509.5 113.5L509.574 113.006L509.5 113.5ZM-0.354126 115.478C-0.618286 115.559 -0.897705 115.41 -0.978271 115.146C-1.0589 114.882 -0.910095 114.602 -0.645996 114.522L-0.354126 115.478ZM970.012 117.185C867.943 118.247 758.928 118.369 672.371 117.766C629.094 117.464 591.429 116.982 563.054 116.345C534.7 115.709 515.579 114.918 509.426 113.994L509.574 113.006C515.649 113.917 534.689 114.708 563.077 115.345C591.444 115.982 629.103 116.464 672.378 116.766C758.929 117.369 867.938 117.247 970.001 116.185L970.012 117.185ZM509.426 113.994C505.145 113.352 494.238 112.808 478.351 112.363C462.48 111.918 441.675 111.571 417.624 111.318C369.523 110.81 308.448 110.674 247.92 110.861C187.393 111.049 127.415 111.56 81.5075 112.349C58.5535 112.743 39.1197 113.207 24.8947 113.734C17.7817 113.997 11.9747 114.276 7.68262 114.57C5.53619 114.718 3.77283 114.868 2.41632 115.022C1.0473 115.177 0.127563 115.331 -0.354126 115.478L-0.645996 114.522C-0.0655518 114.345 0.939026 114.182 2.30377 114.028C3.68109 113.872 5.46088 113.72 7.61426 113.573C11.9218 113.278 17.7407 112.998 24.8577 112.734C39.0925 112.207 58.534 111.743 81.4903 111.349C127.404 110.56 187.387 110.049 247.917 109.861C308.447 109.674 369.527 109.81 417.634 110.318C441.688 110.571 462.5 110.918 478.379 111.363C494.242 111.808 505.219 112.352 509.574 113.006L509.426 113.994Z" fill="url(#paint4_radial_3_9)"/>
<path d="M970.001 114.185C970.277 114.182 970.503 114.404 970.506 114.68C970.509 114.956 970.288 115.182 970.012 115.185L970.001 114.185ZM508.5 111.5L508.432 111.995L508.5 111.5ZM0.221436 113.948C-0.026123 114.071 -0.325989 113.969 -0.448303 113.721C-0.570679 113.474 -0.469116 113.174 -0.221558 113.052L0.221436 113.948ZM970.012 115.185C867.944 116.247 761.304 116.655 675.81 116.195C633.063 115.965 595.601 115.518 566.64 114.828C537.692 114.137 517.205 113.204 508.432 111.995L508.568 111.005C517.273 112.204 537.697 113.137 566.663 113.828C595.616 114.518 633.071 114.965 675.815 115.195C761.303 115.655 867.937 115.247 970.001 114.185L970.012 115.185ZM508.432 111.995C497.907 110.546 461.825 109.478 413.33 108.812C364.856 108.146 304.027 107.88 244.048 108.03C184.069 108.179 124.941 108.742 79.8698 109.733C57.3334 110.228 38.3148 110.83 24.462 111.54C17.535 111.895 11.9052 112.277 7.77521 112.686C5.70972 112.89 4.02594 113.101 2.74567 113.317C1.44495 113.536 0.617432 113.753 0.221436 113.948L-0.221558 113.052C0.322815 112.783 1.2876 112.548 2.57941 112.331C3.89166 112.109 5.60077 111.896 7.67676 111.691C11.8299 111.28 17.478 110.897 24.4108 110.542C38.2781 109.83 57.3081 109.228 79.8478 108.733C124.928 107.742 184.063 107.179 244.046 107.03C304.029 106.88 364.863 107.146 413.344 107.812C461.802 108.478 497.966 109.544 508.568 111.005L508.432 111.995Z" fill="url(#paint5_radial_3_9)"/>
<path d="M970.001 112.185C970.277 112.182 970.503 112.404 970.506 112.68C970.509 112.956 970.288 113.182 970.012 113.185L970.001 112.185ZM508 110L508.085 109.507L508 110ZM0.221436 110.948C-0.026123 111.071 -0.325989 110.969 -0.448303 110.721C-0.570679 110.474 -0.469116 110.174 -0.221558 110.052L0.221436 110.948ZM970.012 113.185C867.944 114.247 758.679 114.655 671.81 114.257C628.376 114.058 590.539 113.658 562 113.038C533.485 112.419 514.2 111.579 507.915 110.493L508.085 109.507C514.278 110.578 533.467 111.418 562.022 112.039C590.553 112.659 628.383 113.058 671.815 113.257C758.677 113.655 867.937 113.247 970.001 112.185L970.012 113.185ZM507.915 110.493C504.795 109.953 494.766 109.435 479.508 108.96C464.273 108.486 443.874 108.056 420.057 107.687C372.424 106.948 311.128 106.45 250.152 106.321C189.175 106.193 128.521 106.433 82.1721 107.17C58.9969 107.539 39.4019 108.031 25.1323 108.664C17.9968 108.98 12.1984 109.332 7.95203 109.719C5.82825 109.913 4.09937 110.115 2.78851 110.326C1.45563 110.54 0.61499 110.754 0.221436 110.948L-0.221558 110.052C0.325317 109.782 1.30902 109.55 2.62994 109.338C3.97284 109.123 5.72705 108.918 7.86115 108.723C12.1305 108.334 17.9468 107.982 25.088 107.665C39.3718 107.032 58.978 106.539 82.1561 106.17C128.514 105.433 189.174 105.193 250.154 105.321C311.134 105.45 372.434 105.948 420.073 106.687C443.892 107.056 464.297 107.486 479.539 107.961C494.758 108.434 504.878 108.953 508.085 109.507L507.915 110.493Z" fill="url(#paint6_radial_3_9)"/>
<path d="M970.001 110.185C970.277 110.182 970.503 110.404 970.506 110.68C970.509 110.956 970.288 111.182 970.012 111.185L970.001 110.185ZM508 108.5L508.073 108.005L508 108.5ZM-0.29425 108.456C-0.545959 108.569 -0.842102 108.457 -0.95575 108.206C-1.0694 107.954 -0.95752 107.658 -0.705872 107.544L-0.29425 108.456ZM970.012 111.185C867.945 112.247 761.43 113.03 675.937 112.882C633.19 112.808 595.696 112.502 566.641 111.882C537.6 111.262 516.954 110.329 507.927 108.995L508.073 108.005C517.025 109.329 537.601 110.262 566.662 110.882C595.708 111.502 633.194 111.808 675.938 111.882C761.426 112.03 867.936 111.247 970.001 110.185L970.012 111.185ZM507.927 108.995C504.23 108.448 493.763 107.917 478.197 107.424C462.649 106.931 442.05 106.476 418.121 106.075C370.263 105.275 309.089 104.694 248.363 104.47C187.637 104.246 127.361 104.378 81.2999 105.004C58.2686 105.317 38.7943 105.754 24.5953 106.33C17.4951 106.619 11.7192 106.942 7.47919 107.302C5.35864 107.482 3.62842 107.67 2.31165 107.868C0.975098 108.068 0.118713 108.269 -0.29425 108.456L-0.705872 107.544C-0.150085 107.293 0.836609 107.077 2.16364 106.879C3.51038 106.677 5.26428 106.486 7.39459 106.305C11.6563 105.944 17.4492 105.62 24.5547 105.331C38.7672 104.754 58.252 104.317 81.2863 104.004C127.356 103.378 187.638 103.246 248.367 103.47C309.096 103.694 370.274 104.275 418.138 105.076C442.069 105.476 462.673 105.931 478.229 106.424C493.767 106.917 504.305 107.448 508.073 108.005L507.927 108.995Z" fill="url(#paint7_radial_3_9)"/>
<path d="M970.001 108.185C970.277 108.182 970.503 108.404 970.506 108.68C970.509 108.956 970.288 109.182 970.012 109.185L970.001 108.185ZM507 107L507.074 106.506L507 107ZM0.221436 106.948C-0.026123 107.071 -0.325989 106.969 -0.448303 106.721C-0.570679 106.474 -0.469116 106.174 -0.221558 106.052L0.221436 106.948ZM970.012 109.185C867.944 110.247 758.62 110.791 671.597 110.587C628.086 110.485 590.148 110.195 561.48 109.691C532.832 109.186 513.396 108.466 506.926 107.494L507.074 106.506C513.463 107.464 532.815 108.185 561.497 108.691C590.158 109.196 628.09 109.485 671.599 109.587C758.617 109.791 867.937 109.247 970.001 108.185L970.012 109.185ZM506.926 107.494C502.642 106.852 491.75 106.242 475.897 105.685C460.058 105.128 439.301 104.624 415.315 104.189C367.343 103.318 306.461 102.721 246.187 102.518C185.913 102.315 126.25 102.506 80.7165 103.212C57.9492 103.566 38.7181 104.048 24.7106 104.674C17.7061 104.987 12.0134 105.335 7.8399 105.721C5.75262 105.914 4.052 106.116 2.76038 106.326C1.44751 106.54 0.615784 106.753 0.221436 106.948L-0.221558 106.052C0.324524 105.782 1.29718 105.551 2.59985 105.339C3.92383 105.124 5.65002 104.92 7.7478 104.726C11.9446 104.338 17.6556 103.988 24.666 103.675C38.688 103.048 57.9304 102.566 80.7009 102.213C126.243 101.506 185.913 101.315 246.19 101.518C306.468 101.721 367.355 102.318 415.333 103.189C439.322 103.624 460.085 104.128 475.932 104.685C491.763 105.242 502.722 105.852 507.074 106.506L506.926 107.494Z" fill="url(#paint8_radial_3_9)"/>
<path d="M970.001 106.185C970.277 106.182 970.503 106.404 970.506 106.68C970.509 106.956 970.288 107.182 970.012 107.185L970.001 106.185ZM508 105L508.055 104.503L508 105ZM22 103L22.163 103.473L22.0565 103.509L21.9445 103.497L22 103ZM11.5 101.7L11.4293 102.195L11.5 101.2V101.7ZM21 101.7V101.2H21.2462L21.3963 101.395L21 101.7ZM970.012 107.185C867.947 108.247 766.067 109.326 682.892 109.389C599.731 109.452 535.229 108.501 507.945 105.497L508.055 104.503C535.271 107.499 599.707 108.452 682.891 108.389C766.061 108.326 867.935 107.247 970.001 106.185L970.012 107.185ZM507.945 105.497C502.745 104.925 470.698 104.199 425.267 103.513C379.858 102.826 321.123 102.18 262.588 101.761C204.052 101.343 145.719 101.152 101.115 101.379C78.8121 101.493 59.9443 101.71 46.2003 102.056C39.3278 102.229 33.7404 102.433 29.6469 102.672C27.5996 102.792 25.9309 102.92 24.6641 103.056C23.3794 103.195 22.555 103.338 22.163 103.473L21.837 102.527C22.3513 102.35 23.2848 102.199 24.557 102.062C25.847 101.923 27.5339 101.794 29.5885 101.674C33.6984 101.434 39.2986 101.229 46.1752 101.056C59.9292 100.71 78.805 100.493 101.11 100.379C145.72 100.152 204.058 100.343 262.595 100.761C321.132 101.18 379.87 101.827 425.282 102.513C470.672 103.198 502.793 103.924 508.055 104.503L507.945 105.497ZM22 103C21.9445 103.497 21.9445 103.497 21.9445 103.497C21.9444 103.497 21.9443 103.497 21.9442 103.497C21.944 103.497 21.9437 103.497 21.9434 103.497C21.9426 103.497 21.9413 103.497 21.9398 103.496C21.9367 103.496 21.9321 103.496 21.9259 103.495C21.9136 103.493 21.8953 103.491 21.8713 103.489C21.8234 103.483 21.7525 103.475 21.6609 103.465C21.4777 103.444 21.2114 103.414 20.8791 103.376C20.2145 103.3 19.2856 103.192 18.2285 103.066C16.1154 102.814 13.4856 102.489 11.4293 102.195L11.5707 101.205C13.6149 101.497 16.2352 101.821 18.3469 102.073C19.4022 102.199 20.3295 102.306 20.9929 102.383C21.3246 102.421 21.5904 102.451 21.7731 102.471C21.8645 102.482 21.9351 102.49 21.9829 102.495C22.0068 102.498 22.025 102.5 22.0371 102.501C22.0432 102.502 22.0478 102.502 22.0509 102.503C22.0524 102.503 22.0536 102.503 22.0543 102.503C22.0547 102.503 22.055 102.503 22.0552 102.503C22.0553 102.503 22.0554 102.503 22.0554 102.503C22.0554 102.503 22.0555 102.503 22 103ZM21.6037 103.305L20.6037 102.005L21.3963 101.395L22.3963 102.695L21.6037 103.305ZM21 102.2H11.5V101.2H21V102.2Z" fill="url(#paint9_radial_3_9)"/>
<path d="M474.221 99.5063C473.948 99.55 473.763 99.8064 473.806 100.079C473.85 100.352 474.106 100.537 474.379 100.494L474.221 99.5063ZM923.8 1L924.015 0.548468L923.853 0.47139L923.679 0.51496L923.8 1ZM969.307 49.585C969.354 49.8571 969.613 50.0397 969.885 49.9928C970.157 49.9458 970.34 49.6872 970.293 49.4151L969.307 49.585ZM474.379 100.494C549.315 88.4906 661.705 63.7369 755.351 41.987C802.176 31.1115 844.318 20.9861 874.754 13.5796C889.972 9.87629 902.264 6.85271 910.751 4.75492C914.995 3.70603 918.287 2.88859 920.519 2.33335C921.635 2.05574 922.485 1.84367 923.057 1.701C923.343 1.62967 923.559 1.57569 923.703 1.53953C923.776 1.52145 923.83 1.50783 923.867 1.49873C923.885 1.49418 923.899 1.49076 923.908 1.48848C923.912 1.48733 923.916 1.48647 923.918 1.4859C923.92 1.48533 923.921 1.48504 923.8 1C923.679 0.51496 923.677 0.515244 923.675 0.515813C923.673 0.516383 923.669 0.517237 923.665 0.518376C923.656 0.520654 923.642 0.524069 923.624 0.528613C923.588 0.537702 923.533 0.551307 923.461 0.569371C923.316 0.605498 923.1 0.659454 922.815 0.73076C922.243 0.873371 921.393 1.08538 920.277 1.36294C918.046 1.91805 914.754 2.73538 910.511 3.78414C902.025 5.88167 889.734 8.90496 874.518 12.6079C844.084 20.0139 801.945 30.1385 755.124 41.013C661.478 62.7631 549.118 87.5094 474.221 99.5063L474.379 100.494ZM923.8 1C923.585 1.45153 923.585 1.45155 923.585 1.45164C923.586 1.45177 923.586 1.45194 923.587 1.4522C923.588 1.45272 923.589 1.45354 923.592 1.45465C923.596 1.45687 923.604 1.46028 923.613 1.46487C923.632 1.47405 923.661 1.48794 923.699 1.50652C923.776 1.54366 923.89 1.59952 924.039 1.67379C924.338 1.82234 924.778 2.04451 925.34 2.33785C926.465 2.92458 928.079 3.79588 930.033 4.93221C933.941 7.20535 939.202 10.5366 944.617 14.769C955.47 23.2517 966.84 35.2771 969.307 49.585L970.293 49.4151C967.76 34.723 956.13 22.4984 945.233 13.9811C939.773 9.71348 934.472 6.35718 930.536 4.06781C928.567 2.92288 926.94 2.04418 925.803 1.45121C925.234 1.15472 924.788 0.929617 924.484 0.778355C924.332 0.702723 924.215 0.645547 924.136 0.607132C924.097 0.587924 924.067 0.573406 924.046 0.563616C924.036 0.558721 924.028 0.555008 924.023 0.552482C924.021 0.551219 924.018 0.550253 924.017 0.549583C924.016 0.549249 924.016 0.54897 924.015 0.548803C924.015 0.548598 924.015 0.548468 923.8 1Z" fill="black"/>
<path d="M970.001 104.185C970.277 104.182 970.503 104.404 970.506 104.68C970.509 104.956 970.288 105.182 970.012 105.185L970.001 104.185ZM508.5 103.5L508.441 103.997L508.5 103.5ZM0.0848999 101.993C-0.187256 102.04 -0.445862 101.857 -0.492798 101.585C-0.539734 101.313 -0.357117 101.054 -0.085022 101.007L0.0848999 101.993ZM970.012 105.185C867.949 106.247 767.318 107.701 684.831 108.014C602.358 108.327 537.978 107.501 508.441 103.997L508.559 103.003C538.022 106.499 602.33 107.327 684.827 107.014C767.31 106.701 867.932 105.247 970.001 104.185L970.012 105.185ZM508.441 103.997C496.8 102.615 460.122 101.641 411.379 100.999C362.654 100.356 301.912 100.045 242.176 99.9849C182.439 99.9249 123.709 100.116 79.0076 100.479C56.6566 100.66 37.814 100.884 24.1068 101.141C17.2528 101.269 11.6848 101.406 7.60474 101.549C3.50433 101.693 0.94928 101.844 0.0848999 101.993L-0.085022 101.007C0.863098 100.844 3.50183 100.693 7.56958 100.55C11.6577 100.406 17.2321 100.269 24.088 100.141C37.8004 99.8841 56.6471 99.66 78.9995 99.4787C123.705 99.1162 182.438 98.9249 242.177 98.9849C301.916 99.0449 362.662 99.3561 411.392 99.9987C460.106 100.641 496.852 101.615 508.559 103.003L508.441 103.997Z" fill="url(#paint10_radial_3_9)"/>
<path d="M970.001 102.185C970.277 102.182 970.503 102.404 970.506 102.68C970.509 102.956 970.288 103.182 970.012 103.185L970.001 102.185ZM509 102L508.938 102.496L509 102ZM0.012146 99.4999C-0.263916 99.5066 -0.493164 99.2883 -0.499939 99.0122C-0.506653 98.7362 -0.28833 98.5069 -0.0122681 98.5002L0.012146 99.4999ZM970.012 103.185C867.954 104.247 768.816 106.076 687.145 106.639C605.484 107.202 541.228 106.501 508.938 102.496L509.062 101.504C541.272 105.499 605.454 106.202 687.138 105.639C768.812 105.076 867.928 103.247 970.001 102.185L970.012 103.185ZM508.938 102.496C500.752 101.481 466.15 100.752 418.47 100.24C370.813 99.7283 310.139 99.434 249.852 99.2827C129.272 98.9801 10.2535 99.2501 0.012146 99.4999L-0.0122681 98.5002C10.2463 98.25 129.283 97.9801 249.854 98.2827C310.143 98.434 370.82 98.7284 418.481 99.2399C466.119 99.7512 500.802 100.479 509.062 101.504L508.938 102.496Z" fill="url(#paint11_radial_3_9)"/>
<line x1="0.0174533" y1="138.807" x2="970.03" y2="142.193" stroke="url(#paint12_linear_3_9)" stroke-width="10"/>
</g>
<defs>
<radialGradient id="paint0_radial_3_9" cx="0" cy="0" r="1" gradientUnits="userSpaceOnUse" gradientTransform="translate(484.753 122.826) rotate(90) scale(2.32615 485.253)">
<stop offset="0.890625" stop-color="#F0EEEC"/>
<stop offset="1" stop-color="#F0EEEC" stop-opacity="0.54"/>
</radialGradient>
<radialGradient id="paint1_radial_3_9" cx="0" cy="0" r="1" gradientUnits="userSpaceOnUse" gradientTransform="translate(485.003 120.824) rotate(90) scale(2.46146 485.003)">
<stop offset="0.890625" stop-color="#F0EEEC"/>
<stop offset="1" stop-color="#F0EEEC" stop-opacity="0.54"/>
</radialGradient>
<radialGradient id="paint2_radial_3_9" cx="0" cy="0" r="1" gradientUnits="userSpaceOnUse" gradientTransform="translate(485.003 118.131) rotate(90) scale(3.14895 485.003)">
<stop offset="0.890625" stop-color="#F0EEEC"/>
<stop offset="1" stop-color="#F0EEEC" stop-opacity="0.54"/>
</radialGradient>
<radialGradient id="paint3_radial_3_9" cx="0" cy="0" r="1" gradientUnits="userSpaceOnUse" gradientTransform="translate(485.003 115.96) rotate(90) scale(3.42739 485.003)">
<stop offset="0.890625" stop-color="#F0EEEC"/>
<stop offset="1" stop-color="#F0EEEC" stop-opacity="0.54"/>
</radialGradient>
<radialGradient id="paint4_radial_3_9" cx="0" cy="0" r="1" gradientUnits="userSpaceOnUse" gradientTransform="translate(484.753 113.954) rotate(90) scale(3.67358 485.253)">
<stop offset="0.890625" stop-color="#F0EEEC"/>
<stop offset="1" stop-color="#F0EEEC" stop-opacity="0.54"/>
</radialGradient>
<radialGradient id="paint5_radial_3_9" cx="0" cy="0" r="1" gradientUnits="userSpaceOnUse" gradientTransform="translate(485.003 111.686) rotate(90) scale(4.1963 485.003)">
<stop offset="0.890625" stop-color="#F0EEEC"/>
<stop offset="1" stop-color="#F0EEEC" stop-opacity="0.54"/>
</radialGradient>
<radialGradient id="paint6_radial_3_9" cx="0" cy="0" r="1" gradientUnits="userSpaceOnUse" gradientTransform="translate(485.003 109.848) rotate(90) scale(4.05921 485.003)">
<stop offset="0.890625" stop-color="#F0EEEC"/>
<stop offset="1" stop-color="#F0EEEC" stop-opacity="0.54"/>
</radialGradient>
<radialGradient id="paint7_radial_3_9" cx="0" cy="0" r="1" gradientUnits="userSpaceOnUse" gradientTransform="translate(484.753 108.134) rotate(90) scale(4.26598 485.253)">
<stop offset="0.890625" stop-color="#F0EEEC"/>
<stop offset="1" stop-color="#F0EEEC" stop-opacity="0.54"/>
</radialGradient>
<radialGradient id="paint8_radial_3_9" cx="0" cy="0" r="1" gradientUnits="userSpaceOnUse" gradientTransform="translate(485.003 106.035) rotate(90) scale(4.09404 485.003)">
<stop offset="0.890625" stop-color="#F0EEEC"/>
<stop offset="1" stop-color="#F0EEEC" stop-opacity="0.54"/>
</radialGradient>
<radialGradient id="paint9_radial_3_9" cx="0" cy="0" r="1" gradientUnits="userSpaceOnUse" gradientTransform="translate(490.753 104.837) rotate(90) scale(4.05479 479.253)">
<stop offset="0.890625" stop-color="#F0EEEC"/>
<stop offset="1" stop-color="#F0EEEC" stop-opacity="0.54"/>
</radialGradient>
<radialGradient id="paint10_radial_3_9" cx="0" cy="0" r="1" gradientUnits="userSpaceOnUse" gradientTransform="translate(485.003 103.525) rotate(90) scale(4.05057 485.003)">
<stop offset="0.890625" stop-color="#F0EEEC"/>
<stop offset="1" stop-color="#F0EEEC" stop-opacity="0.54"/>
</radialGradient>
<radialGradient id="paint11_radial_3_9" cx="0" cy="0" r="1" gradientUnits="userSpaceOnUse" gradientTransform="translate(485.003 102.479) rotate(90) scale(3.83028 485.003)">
<stop offset="0.890625" stop-color="#F0EEEC"/>
<stop offset="1" stop-color="#F0EEEC" stop-opacity="0.54"/>
</radialGradient>
<linearGradient id="paint12_linear_3_9" x1="485.007" y1="137.5" x2="485.007" y2="147" gradientUnits="userSpaceOnUse">
<stop stop-color="white"/>
<stop offset="1" stop-color="white" stop-opacity="0"/>
</linearGradient>
<clipPath id="clip0_3_9">
<rect width="970.013" height="298.5" fill="white"/>
</clipPath>
</defs>
</svg>
